SplineFontDB: 3.0
FontName: Umpush
FullName: Umpush
FamilyName: Umpush
Weight: Book
Copyright: Copyright (c) 2003 NECTEC. All rights reserved.\nCopyright (c) 2007 Widhaya Trisarnwadhana. All rights reserved.\nModified under GNU General Public License by TLWG.
Version: 0.9.14: 2012-02-14
ItalicAngle: 0
UnderlinePosition: -190
UnderlineWidth: 20
Ascent: 1638
Descent: 410
InvalidEm: 0
sfntRevision: 0x0000e666
LayerCount: 2
Layer: 0 1 "Back" 1
Layer: 1 1 "Fore" 0
XUID: [1021 542 582384140 7911061]
StyleMap: 0x0040
FSType: 0
OS2Version: 1
OS2_WeightWidthSlopeOnly: 0
OS2_UseTypoMetrics: 0
CreationTime: 1153662374
ModificationTime: 1465788161
PfmFamily: 17
TTFWeight: 400
TTFWidth: 5
LineGap: 0
VLineGap: 0
Panose: 2 11 5 4 2 2 2 2 2 4
OS2TypoAscent: 1638
OS2TypoAOffset: 0
OS2TypoDescent: -410
OS2TypoDOffset: 0
OS2TypoLinegap: 0
OS2WinAscent: 2586
OS2WinAOffset: 0
OS2WinDescent: 1315
OS2WinDOffset: 0
HheadAscent: 2586
HheadAOffset: 0
HheadDescent: -1315
HheadDOffset: 0
OS2SubXSize: 1331
OS2SubYSize: 1433
OS2SubXOff: 0
OS2SubYOff: 286
OS2SupXSize: 1331
OS2SupYSize: 1433
OS2SupXOff: 0
OS2SupYOff: 983
OS2StrikeYSize: 102
OS2StrikeYPos: 530
OS2Vendor: 'PfEd'
OS2CodePages: 00010001.00000000
OS2UnicodeRanges: 8100002f.50002009.00000000.00000000
Lookup: 4 0 1 "'liga' Standard Ligatures in Latin lookup 0" { "'liga' Standard Ligatures in Latin lookup 0 subtable"  } ['liga' ('latn' <'dflt' > ) ]
Lookup: 6 0 0 "'ccmp' Glyph Composition/Decomposition in Thai lookup 1" { "'ccmp' Glyph Composition/Decomposition in Thai lookup 1 subtable"  } ['ccmp' ('DFLT' <'dflt' > 'thai' <'KUY ' 'THA ' 'dflt' > ) ]
Lookup: 1 0 0 "'ccmp' Glyph Composition/Decomposition in Thai lookup 2" { "'ccmp' Glyph Composition/Decomposition in Thai lookup 2 subtable"  } ['ccmp' ('thai' <'PAL ' 'SAN ' > ) ]

StartChar: exclam
Encoding: 33 33 3
Width: 569
GlyphClass: 2
Flags: W
LayerCount: 2
Fore
SplineSet
198 999 m 1,0,-1
 198 1450 l 1,1,-1
 378 1450 l 1,2,-1
 378 999 l 1,3,-1
 334 365 l 1,4,-1
 242 365 l 1,5,-1
 198 999 l 1,0,-1
198 194 m 1,6,-1
 378 194 l 1,7,-1
 378 0 l 1,8,-1
 198 0 l 1,9,-1
 198 194 l 1,6,-1
EndSplineSet
EndChar

StartChar: quotedbl
Encoding: 34 34 4
Width: 727
GlyphClass: 2
Flags: W
LayerCount: 2
Fore
SplineSet
156 947 m 1,0,-1
 106 1217 l 1,1,-1
 106 1450 l 1,2,-1
 286 1450 l 1,3,-1
 286 1217 l 1,4,-1
 241 947 l 1,5,-1
 156 947 l 1,0,-1
487 947 m 1,6,-1
 439 1217 l 1,7,-1
 439 1450 l 1,8,-1
 619 1450 l 1,9,-1
 619 1217 l 1,10,-1
 572 947 l 1,11,-1
 487 947 l 1,6,-1
EndSplineSet
EndChar

StartChar: numbersign
Encoding: 35 35 5
Width: 1139
GlyphClass: 2
Flags: W
LayerCount: 2
Fore
SplineSet
267 -10 m 1,0,-1
 87 -10 l 1,1,-1
 170 390 l 1,2,-1
 21 390 l 1,3,-1
 21 560 l 1,4,-1
 206 560 l 1,5,-1
 276 900 l 1,6,-1
 21 900 l 1,7,-1
 21 1070 l 1,8,-1
 312 1070 l 1,9,-1
 395 1470 l 1,10,-1
 575 1470 l 1,11,-1
 492 1070 l 1,12,-1
 771 1070 l 1,13,-1
 854 1470 l 1,14,-1
 1034 1470 l 1,15,-1
 951 1070 l 1,16,-1
 1113 1070 l 1,17,-1
 1113 900 l 1,18,-1
 915 900 l 1,19,-1
 845 560 l 1,20,-1
 1113 560 l 1,21,-1
 1113 390 l 1,22,-1
 809 390 l 1,23,-1
 726 -10 l 1,24,-1
 546 -10 l 1,25,-1
 629 390 l 1,26,-1
 350 390 l 1,27,-1
 267 -10 l 1,0,-1
735 900 m 1,28,-1
 456 900 l 1,29,-1
 386 560 l 1,30,-1
 665 560 l 1,31,-1
 735 900 l 1,28,-1
EndSplineSet
EndChar

StartChar: dollar
Encoding: 36 36 6
Width: 1139
GlyphClass: 2
Flags: W
LayerCount: 2
Fore
SplineSet
473 1500 m 1,0,-1
 653 1500 l 1,1,-1
 653 1422 l 1,2,3
 802 1399 802 1399 901.5 1305.5 c 128,-1,4
 1001 1212 1001 1212 1008 1062 c 1,5,-1
 828 1062 l 1,6,7
 819 1129 819 1129 771 1177.5 c 128,-1,8
 723 1226 723 1226 653 1246 c 1,9,-1
 653 799 l 1,10,11
 716 785 716 785 767 767.5 c 128,-1,12
 818 750 818 750 871.5 718.5 c 128,-1,13
 925 687 925 687 960.5 646.5 c 128,-1,14
 996 606 996 606 1019 545 c 128,-1,15
 1042 484 1042 484 1042 409 c 0,16,17
 1042 242 1042 242 933 132 c 128,-1,18
 824 22 824 22 653 -4 c 1,19,-1
 653 -106 l 1,20,-1
 473 -106 l 1,21,-1
 473 -5 l 1,22,23
 296 18 296 18 186.5 131.5 c 128,-1,24
 77 245 77 245 76 429 c 1,25,-1
 256 429 l 1,26,27
 272 327 272 327 329 260 c 128,-1,28
 386 193 386 193 473 170 c 1,29,-1
 473 665 l 1,30,31
 106 752 106 752 106 1043 c 0,32,33
 106 1204 106 1204 210 1302 c 128,-1,34
 314 1400 314 1400 473 1423 c 1,35,-1
 473 1500 l 1,0,-1
473 1249 m 1,36,37
 391 1230 391 1230 338.5 1181 c 128,-1,38
 286 1132 286 1132 286 1056 c 0,39,40
 286 892 286 892 473 836 c 1,41,-1
 473 1249 l 1,36,37
653 170 m 1,42,43
 744 192 744 192 803 251.5 c 128,-1,44
 862 311 862 311 862 398 c 0,45,46
 862 496 862 496 805.5 549.5 c 128,-1,47
 749 603 749 603 653 629 c 1,48,-1
 653 170 l 1,42,43
EndSplineSet
EndChar

StartChar: percent
Encoding: 37 37 7
Width: 1821
GlyphClass: 2
Flags: W
LayerCount: 2
Fore
SplineSet
1067 336 m 128,-1,1
 1067 505 1067 505 1149.5 614.5 c 128,-1,2
 1232 724 1232 724 1380 724 c 128,-1,3
 1528 724 1528 724 1610.5 614.5 c 128,-1,4
 1693 505 1693 505 1693 336 c 128,-1,5
 1693 167 1693 167 1610.5 58.5 c 128,-1,6
 1528 -50 1528 -50 1380 -50 c 128,-1,7
 1232 -50 1232 -50 1149.5 58.5 c 128,-1,0
 1067 167 1067 167 1067 336 c 128,-1,1
1380 554 m 0,8,9
 1315 554 1315 554 1281 490 c 128,-1,10
 1247 426 1247 426 1247 336 c 0,11,12
 1247 250 1247 250 1283.5 185 c 128,-1,13
 1320 120 1320 120 1380 120 c 0,14,15
 1442 120 1442 120 1477.5 184 c 128,-1,16
 1513 248 1513 248 1513 336 c 0,17,18
 1513 427 1513 427 1480.5 490.5 c 128,-1,19
 1448 554 1448 554 1380 554 c 0,8,9
119 1104 m 128,-1,21
 119 1273 119 1273 201.5 1382 c 128,-1,22
 284 1491 284 1491 432 1491 c 128,-1,23
 580 1491 580 1491 662.5 1382 c 128,-1,24
 745 1273 745 1273 745 1104 c 128,-1,25
 745 935 745 935 662.5 826 c 128,-1,26
 580 717 580 717 432 717 c 128,-1,27
 284 717 284 717 201.5 826 c 128,-1,20
 119 935 119 935 119 1104 c 128,-1,21
432 1321 m 0,28,29
 367 1321 367 1321 333 1257 c 128,-1,30
 299 1193 299 1193 299 1104 c 0,31,32
 299 1018 299 1018 335.5 952.5 c 128,-1,33
 372 887 372 887 432 887 c 0,34,35
 494 887 494 887 529.5 951.5 c 128,-1,36
 565 1016 565 1016 565 1104 c 0,37,38
 565 1195 565 1195 532.5 1258 c 128,-1,39
 500 1321 500 1321 432 1321 c 0,28,29
1217 1491 m 1,40,-1
 1397 1491 l 1,41,-1
 638 -10 l 1,42,-1
 458 -10 l 1,43,-1
 1217 1491 l 1,40,-1
EndSplineSet
EndChar

StartChar: ampersand
Encoding: 38 38 8
Width: 1366
GlyphClass: 2
Flags: W
LayerCount: 2
Fore
SplineSet
973 179 m 1,0,1
 794 -11 794 -11 553 -11 c 0,2,3
 353 -11 353 -11 220.5 111.5 c 128,-1,4
 88 234 88 234 88 410 c 0,5,6
 88 678 88 678 436 842 c 1,7,8
 430 850 430 850 398.5 889.5 c 128,-1,9
 367 929 367 929 358 941.5 c 128,-1,10
 349 954 349 954 326.5 988.5 c 128,-1,11
 304 1023 304 1023 296 1044 c 128,-1,12
 288 1065 288 1065 280 1096.5 c 128,-1,13
 272 1128 272 1128 272 1159 c 0,14,15
 272 1296 272 1296 379.5 1389 c 128,-1,16
 487 1482 487 1482 637 1482 c 0,17,18
 781 1482 781 1482 879 1391 c 128,-1,19
 977 1300 977 1300 977 1174 c 0,20,21
 977 969 977 969 700 821 c 1,22,-1
 963 492 l 1,23,24
 1010 581 1010 581 1032 690 c 1,25,-1
 1221 649 l 1,26,27
 1175 471 1175 471 1090 341 c 1,28,29
 1199 211 1199 211 1319 123 c 1,30,-1
 1198 -21 l 1,31,32
 1099 45 1099 45 973 179 c 1,0,1
606 938 m 1,33,34
 711 1003 711 1003 737 1025 c 0,35,36
 797 1078 797 1078 797 1154 c 0,37,38
 797 1217 797 1217 745.5 1264.5 c 128,-1,39
 694 1312 694 1312 627 1312 c 0,40,41
 556 1312 556 1312 504 1266 c 128,-1,42
 452 1220 452 1220 452 1162 c 0,43,44
 452 1144 452 1144 462 1121.5 c 128,-1,45
 472 1099 472 1099 492 1072.5 c 128,-1,46
 512 1046 512 1046 528.5 1026 c 128,-1,47
 545 1006 545 1006 571 977 c 128,-1,48
 597 948 597 948 606 938 c 1,33,34
530 725 m 1,49,50
 398 649 398 649 333 580 c 128,-1,51
 268 511 268 511 268 423 c 0,52,53
 268 381 268 381 286.5 335.5 c 128,-1,54
 305 290 305 290 339.5 250 c 128,-1,55
 374 210 374 210 430.5 184.5 c 128,-1,56
 487 159 487 159 555 159 c 0,57,58
 646 159 646 159 725 206.5 c 128,-1,59
 804 254 804 254 860 322 c 1,60,-1
 530 725 l 1,49,50
EndSplineSet
EndChar

StartChar: quotesingle
Encoding: 39 39 9
Width: 391
GlyphClass: 2
Flags: W
LayerCount: 2
Fore
SplineSet
136 947 m 1,0,-1
 90 1221 l 1,1,-1
 90 1466 l 1,2,-1
 295 1466 l 1,3,-1
 295 1221 l 1,4,-1
 247 947 l 1,5,-1
 136 947 l 1,0,-1
EndSplineSet
EndChar

StartChar: parenleft
Encoding: 40 40 10
Width: 682
GlyphClass: 2
Flags: W
LayerCount: 2
Fore
SplineSet
479 -431 m 1,0,1
 317 -221 317 -221 220.5 23.5 c 128,-1,2
 124 268 124 268 124 531 c 0,3,4
 124 681 124 681 150.5 818 c 128,-1,5
 177 955 177 955 228 1074 c 128,-1,6
 279 1193 279 1193 339 1291 c 128,-1,7
 399 1389 399 1389 479 1491 c 1,8,-1
 608 1491 l 1,9,10
 548 1388 548 1388 516 1331 c 128,-1,11
 484 1274 484 1274 443 1190.5 c 128,-1,12
 402 1107 402 1107 381.5 1044 c 128,-1,13
 361 981 361 981 340.5 897.5 c 128,-1,14
 320 814 320 814 312 725 c 128,-1,15
 304 636 304 636 304 530 c 0,16,17
 304 58 304 58 608 -431 c 1,18,-1
 479 -431 l 1,0,1
EndSplineSet
EndChar

StartChar: parenright
Encoding: 41 41 11
Width: 682
GlyphClass: 2
Flags: W
LayerCount: 2
Fore
SplineSet
203 -431 m 1,0,1
 365 -221 365 -221 461.5 23.5 c 128,-1,2
 558 268 558 268 558 531 c 0,3,4
 558 681 558 681 531.5 818 c 128,-1,5
 505 955 505 955 454 1074 c 128,-1,6
 403 1193 403 1193 343 1291 c 128,-1,7
 283 1389 283 1389 203 1491 c 1,8,-1
 74 1491 l 1,9,10
 134 1389 134 1389 166 1331.5 c 128,-1,11
 198 1274 198 1274 239 1190.5 c 128,-1,12
 280 1107 280 1107 300.5 1044 c 128,-1,13
 321 981 321 981 341.5 897.5 c 128,-1,14
 362 814 362 814 370 725 c 128,-1,15
 378 636 378 636 378 530 c 0,16,17
 378 58 378 58 74 -431 c 1,18,-1
 203 -431 l 1,0,1
EndSplineSet
EndChar

StartChar: asterisk
Encoding: 42 42 12
Width: 797
GlyphClass: 2
Flags: W
LayerCount: 2
Fore
SplineSet
64 1197 m 1,0,-1
 110 1339 l 1,1,2
 264 1285 264 1285 341 1242 c 1,3,4
 323 1412 323 1412 321 1491 c 1,5,-1
 466 1491 l 1,6,7
 463 1396 463 1396 443 1243 c 1,8,9
 548 1296 548 1296 679 1339 c 1,10,-1
 725 1197 l 1,11,12
 595 1154 595 1154 476 1141 c 1,13,14
 536 1090 536 1090 648 952 c 1,15,-1
 528 867 l 1,16,17
 472 944 472 944 391 1082 c 1,18,19
 319 944 319 944 261 867 c 1,20,-1
 143 952 l 1,21,22
 255 1091 255 1091 309 1141 c 1,23,24
 165 1169 165 1169 64 1197 c 1,0,-1
EndSplineSet
EndChar

StartChar: plus
Encoding: 43 43 13
Width: 1196
GlyphClass: 2
Flags: W
LayerCount: 2
Fore
SplineSet
508 237 m 1,0,-1
 508 638 l 1,1,-1
 114 638 l 1,2,-1
 114 808 l 1,3,-1
 508 808 l 1,4,-1
 508 1206 l 1,5,-1
 688 1206 l 1,6,-1
 688 808 l 1,7,-1
 1082 808 l 1,8,-1
 1082 638 l 1,9,-1
 688 638 l 1,10,-1
 688 237 l 1,11,-1
 508 237 l 1,0,-1
EndSplineSet
EndChar

StartChar: comma
Encoding: 44 44 14
Width: 569
GlyphClass: 2
Flags: W
LayerCount: 2
Fore
SplineSet
182 0 m 1,0,-1
 182 205 l 1,1,-1
 387 205 l 1,2,-1
 387 0 l 2,3,4
 386 -116 386 -116 345.5 -184.5 c 128,-1,5
 305 -253 305 -253 220 -290 c 1,6,-1
 170 -213 l 1,7,8
 230 -186 230 -186 255.5 -137.5 c 128,-1,9
 281 -89 281 -89 284 0 c 1,10,-1
 182 0 l 1,0,-1
EndSplineSet
EndChar

StartChar: hyphen
Encoding: 45 45 15
Width: 682
GlyphClass: 2
Flags: W
LayerCount: 2
Fore
SplineSet
65 446 m 1,0,-1
 65 616 l 1,1,-1
 618 616 l 1,2,-1
 618 446 l 1,3,-1
 65 446 l 1,0,-1
EndSplineSet
EndChar

StartChar: period
Encoding: 46 46 16
Width: 569
GlyphClass: 2
Flags: W
LayerCount: 2
Fore
SplineSet
186 0 m 1,0,-1
 186 205 l 1,1,-1
 391 205 l 1,2,-1
 391 0 l 1,3,-1
 186 0 l 1,0,-1
EndSplineSet
EndChar

StartChar: slash
Encoding: 47 47 17
Width: 595
GlyphClass: 2
Flags: W
LayerCount: 2
Fore
SplineSet
-81 -10 m 1,0,-1
 506 1470 l 1,1,-1
 688 1470 l 1,2,-1
 102 -10 l 1,3,-1
 -81 -10 l 1,0,-1
EndSplineSet
EndChar

StartChar: zero
Encoding: 48 48 18
Width: 1139
GlyphClass: 2
Flags: W
LayerCount: 2
Fore
SplineSet
86 723 m 0,0,1
 86 895 86 895 109.5 1024 c 128,-1,2
 133 1153 133 1153 186.5 1253.5 c 128,-1,3
 240 1354 240 1354 334.5 1406.5 c 128,-1,4
 429 1459 429 1459 563 1459 c 0,5,6
 1040 1459 1040 1459 1040 723 c 0,7,8
 1040 554 1040 554 1015 424 c 128,-1,9
 990 294 990 294 935.5 194.5 c 128,-1,10
 881 95 881 95 787.5 42.5 c 128,-1,11
 694 -10 694 -10 563 -10 c 0,12,13
 86 -10 86 -10 86 723 c 0,0,1
266 723 m 0,14,15
 266 602 266 602 282 503.5 c 128,-1,16
 298 405 298 405 332 326 c 128,-1,17
 366 247 366 247 424.5 203.5 c 128,-1,18
 483 160 483 160 563 160 c 0,19,20
 709 160 709 160 784.5 304 c 128,-1,21
 860 448 860 448 860 723 c 0,22,23
 860 1000 860 1000 784 1144.5 c 128,-1,24
 708 1289 708 1289 561 1289 c 0,25,26
 491 1289 491 1289 436.5 1247.5 c 128,-1,27
 382 1206 382 1206 351 1144.5 c 128,-1,28
 320 1083 320 1083 300 1002.5 c 128,-1,29
 280 922 280 922 273 854.5 c 128,-1,30
 266 787 266 787 266 723 c 0,14,15
EndSplineSet
EndChar

StartChar: one
Encoding: 49 49 19
Width: 1139
GlyphClass: 2
Flags: W
LayerCount: 2
Fore
SplineSet
763 0 m 1,0,-1
 583 0 l 1,1,-1
 583 1135 l 1,2,3
 536 1059 536 1059 434 994.5 c 128,-1,4
 332 930 332 930 223 907 c 1,5,-1
 223 1104 l 1,6,7
 347 1161 347 1161 446.5 1258 c 128,-1,8
 546 1355 546 1355 583 1472 c 1,9,-1
 763 1472 l 1,10,-1
 763 0 l 1,0,-1
EndSplineSet
EndChar

StartChar: two
Encoding: 50 50 20
Width: 1139
GlyphClass: 2
Flags: W
LayerCount: 2
Fore
SplineSet
1031 170 m 1,0,-1
 1031 0 l 1,1,-1
 62 0 l 1,2,3
 62 229 62 229 437 542 c 0,4,5
 460 561 460 561 516 607 c 128,-1,6
 572 653 572 653 594.5 672 c 128,-1,7
 617 691 617 691 661.5 731.5 c 128,-1,8
 706 772 706 772 726 795.5 c 128,-1,9
 746 819 746 819 775 857.5 c 128,-1,10
 804 896 804 896 816.5 927 c 128,-1,11
 829 958 829 958 839 998 c 128,-1,12
 849 1038 849 1038 849 1079 c 0,13,14
 849 1187 849 1187 769 1249.5 c 128,-1,15
 689 1312 689 1312 568 1312 c 0,16,17
 435 1312 435 1312 356 1242 c 128,-1,18
 277 1172 277 1172 276 1039 c 1,19,-1
 96 1039 l 1,20,21
 96 1236 96 1236 229.5 1359 c 128,-1,22
 363 1482 363 1482 572 1482 c 0,23,24
 770 1482 770 1482 899.5 1371 c 128,-1,25
 1029 1260 1029 1260 1029 1075 c 0,26,27
 1029 1022 1029 1022 1017.5 971.5 c 128,-1,28
 1006 921 1006 921 991 881.5 c 128,-1,29
 976 842 976 842 944.5 796.5 c 128,-1,30
 913 751 913 751 890 722.5 c 128,-1,31
 867 694 867 694 821.5 650.5 c 128,-1,32
 776 607 776 607 751 585.5 c 128,-1,33
 726 564 726 564 672 519 c 128,-1,34
 618 474 618 474 596 455 c 0,35,36
 573 435 573 435 520 392 c 128,-1,37
 467 349 467 349 438.5 324 c 128,-1,38
 410 299 410 299 372 256.5 c 128,-1,39
 334 214 334 214 309 170 c 1,40,-1
 1031 170 l 1,0,-1
EndSplineSet
EndChar

StartChar: three
Encoding: 51 51 21
Width: 1139
GlyphClass: 2
Flags: W
LayerCount: 2
Fore
SplineSet
86 427 m 1,0,-1
 266 427 l 1,1,2
 267 306 267 306 348.5 232.5 c 128,-1,3
 430 159 430 159 553 159 c 0,4,5
 684 159 684 159 775 239 c 128,-1,6
 866 319 866 319 866 445 c 0,7,8
 866 568 866 568 785.5 637.5 c 128,-1,9
 705 707 705 707 576 707 c 0,10,11
 510 707 510 707 441 688 c 1,12,-1
 441 858 l 1,13,14
 469 856 469 856 483 856 c 0,15,16
 613 856 613 856 703.5 925 c 128,-1,17
 794 994 794 994 794 1105 c 0,18,19
 794 1202 794 1202 726 1257 c 128,-1,20
 658 1312 658 1312 549 1312 c 0,21,22
 319 1312 319 1312 284 1070 c 1,23,-1
 104 1070 l 1,24,25
 109 1244 109 1244 235.5 1363 c 128,-1,26
 362 1482 362 1482 545 1482 c 0,27,28
 661 1482 661 1482 758.5 1435 c 128,-1,29
 856 1388 856 1388 915 1299.5 c 128,-1,30
 974 1211 974 1211 974 1101 c 0,31,32
 974 1001 974 1001 916 917 c 128,-1,33
 858 833 858 833 772 794 c 1,34,35
 1046 724 1046 724 1046 449 c 0,36,37
 1046 249 1046 249 904.5 119 c 128,-1,38
 763 -11 763 -11 552 -11 c 0,39,40
 355 -11 355 -11 221.5 112.5 c 128,-1,41
 88 236 88 236 86 427 c 1,0,-1
EndSplineSet
EndChar

StartChar: four
Encoding: 52 52 22
Width: 1139
GlyphClass: 2
Flags: W
LayerCount: 2
Fore
SplineSet
662 0 m 1,0,-1
 662 352 l 1,1,-1
 26 352 l 1,2,-1
 26 522 l 1,3,-1
 662 1472 l 1,4,-1
 842 1472 l 1,5,-1
 842 522 l 1,6,-1
 1040 522 l 1,7,-1
 1040 352 l 1,8,-1
 842 352 l 1,9,-1
 842 0 l 1,10,-1
 662 0 l 1,0,-1
662 522 m 1,11,-1
 662 1117 l 1,12,-1
 251 522 l 1,13,-1
 662 522 l 1,11,-1
EndSplineSet
EndChar

StartChar: five
Encoding: 53 53 23
Width: 1139
GlyphClass: 2
Flags: W
LayerCount: 2
Fore
SplineSet
85 414 m 1,0,-1
 274 414 l 1,1,2
 296 287 296 287 364 223 c 128,-1,3
 432 159 432 159 556 159 c 0,4,5
 698 159 698 159 787.5 252 c 128,-1,6
 877 345 877 345 877 495 c 0,7,8
 877 644 877 644 790 730 c 128,-1,9
 703 816 703 816 553 816 c 0,10,11
 405 816 405 816 306 685 c 1,12,-1
 117 707 l 1,13,-1
 254 1450 l 1,14,-1
 988 1450 l 1,15,-1
 988 1280 l 1,16,-1
 419 1280 l 1,17,-1
 344 919 l 1,18,19
 425 986 425 986 591 986 c 0,20,21
 799 986 799 986 928 855 c 128,-1,22
 1057 724 1057 724 1057 511 c 0,23,24
 1057 367 1057 367 995.5 248.5 c 128,-1,25
 934 130 934 130 818.5 59.5 c 128,-1,26
 703 -11 703 -11 556 -11 c 0,27,28
 352 -11 352 -11 227.5 103.5 c 128,-1,29
 103 218 103 218 85 414 c 1,0,-1
EndSplineSet
EndChar

StartChar: six
Encoding: 54 54 24
Width: 1139
GlyphClass: 2
Flags: W
LayerCount: 2
Fore
SplineSet
1019 1103 m 1,0,-1
 839 1103 l 1,1,2
 814 1206 814 1206 755 1259 c 128,-1,3
 696 1312 696 1312 592 1312 c 0,4,5
 279 1312 279 1312 271 842 c 1,6,7
 328 912 328 912 405 944.5 c 128,-1,8
 482 977 482 977 594 977 c 0,9,10
 787 977 787 977 916 837.5 c 128,-1,11
 1045 698 1045 698 1045 491 c 0,12,13
 1045 353 1045 353 989.5 239.5 c 128,-1,14
 934 126 934 126 828 57.5 c 128,-1,15
 722 -11 722 -11 586 -11 c 0,16,17
 448 -11 448 -11 347.5 42 c 128,-1,18
 247 95 247 95 189 193 c 128,-1,19
 131 291 131 291 104 416.5 c 128,-1,20
 77 542 77 542 77 701 c 0,21,22
 77 1482 77 1482 603 1482 c 0,23,24
 775 1482 775 1482 897.5 1374.5 c 128,-1,25
 1020 1267 1020 1267 1019 1103 c 1,0,-1
306 490 m 0,26,27
 306 348 306 348 381 253.5 c 128,-1,28
 456 159 456 159 585 159 c 0,29,30
 717 159 717 159 791 249.5 c 128,-1,31
 865 340 865 340 865 480 c 0,32,33
 865 624 865 624 789 715.5 c 128,-1,34
 713 807 713 807 578 807 c 0,35,36
 452 807 452 807 379 718 c 128,-1,37
 306 629 306 629 306 490 c 0,26,27
EndSplineSet
EndChar

StartChar: seven
Encoding: 55 55 25
Width: 1139
GlyphClass: 2
Flags: W
LayerCount: 2
Fore
SplineSet
1046 1280 m 1,0,1
 944 1158 944 1158 854.5 1018.5 c 128,-1,2
 765 879 765 879 685 713.5 c 128,-1,3
 605 548 605 548 558 362 c 128,-1,4
 511 176 511 176 511 0 c 1,5,-1
 331 0 l 1,6,7
 331 166 331 166 377 354 c 128,-1,8
 423 542 423 542 497.5 711 c 128,-1,9
 572 880 572 880 658 1025.5 c 128,-1,10
 744 1171 744 1171 833 1280 c 1,11,-1
 97 1280 l 1,12,-1
 97 1450 l 1,13,-1
 1046 1450 l 1,14,-1
 1046 1280 l 1,0,1
EndSplineSet
EndChar

StartChar: eight
Encoding: 56 56 26
Width: 1139
GlyphClass: 2
Flags: W
LayerCount: 2
Fore
SplineSet
362 805 m 1,0,1
 142 886 142 886 142 1104 c 0,2,3
 142 1277 142 1277 262 1379.5 c 128,-1,4
 382 1482 382 1482 563 1482 c 0,5,6
 747 1482 747 1482 868 1376.5 c 128,-1,7
 989 1271 989 1271 989 1099 c 0,8,9
 989 995 989 995 932.5 919.5 c 128,-1,10
 876 844 876 844 773 805 c 1,11,12
 909 757 909 757 979 667.5 c 128,-1,13
 1049 578 1049 578 1049 434 c 0,14,15
 1049 225 1049 225 917 107 c 128,-1,16
 785 -11 785 -11 566 -11 c 0,17,18
 357 -11 357 -11 220 112.5 c 128,-1,19
 83 236 83 236 83 439 c 0,20,21
 83 588 83 588 157 680 c 128,-1,22
 231 772 231 772 362 805 c 1,0,1
322 1110 m 0,23,24
 322 1007 322 1007 390.5 943.5 c 128,-1,25
 459 880 459 880 567 880 c 0,26,27
 671 880 671 880 740 941 c 128,-1,28
 809 1002 809 1002 809 1100 c 0,29,30
 809 1200 809 1200 742 1256 c 128,-1,31
 675 1312 675 1312 565 1312 c 0,32,33
 458 1312 458 1312 390 1260.5 c 128,-1,34
 322 1209 322 1209 322 1110 c 0,23,24
263 438 m 128,-1,36
 263 313 263 313 350.5 236 c 128,-1,37
 438 159 438 159 568 159 c 0,38,39
 705 159 705 159 787 232 c 128,-1,40
 869 305 869 305 869 432 c 0,41,42
 869 563 869 563 785 631 c 128,-1,43
 701 699 701 699 562 699 c 0,44,45
 428 699 428 699 345.5 631 c 128,-1,35
 263 563 263 563 263 438 c 128,-1,36
EndSplineSet
EndChar

StartChar: nine
Encoding: 57 57 27
Width: 1139
GlyphClass: 2
Flags: W
LayerCount: 2
Fore
SplineSet
138 369 m 1,0,-1
 318 369 l 1,1,2
 343 266 343 266 402.5 212.5 c 128,-1,3
 462 159 462 159 566 159 c 0,4,5
 879 159 879 159 887 630 c 1,6,7
 830 560 830 560 753 527.5 c 128,-1,8
 676 495 676 495 564 495 c 0,9,10
 376 495 376 495 244.5 635 c 128,-1,11
 113 775 113 775 113 981 c 0,12,13
 113 1120 113 1120 169 1234 c 128,-1,14
 225 1348 225 1348 330.5 1415 c 128,-1,15
 436 1482 436 1482 572 1482 c 0,16,17
 705 1482 705 1482 804.5 1430 c 128,-1,18
 904 1378 904 1378 963.5 1282 c 128,-1,19
 1023 1186 1023 1186 1052 1058.5 c 128,-1,20
 1081 931 1081 931 1081 771 c 0,21,22
 1081 635 1081 635 1064.5 521 c 128,-1,23
 1048 407 1048 407 1009.5 306.5 c 128,-1,24
 971 206 971 206 911.5 137 c 128,-1,25
 852 68 852 68 761.5 28.5 c 128,-1,26
 671 -11 671 -11 555 -11 c 0,27,28
 384 -11 384 -11 261 97 c 128,-1,29
 138 205 138 205 138 369 c 1,0,-1
852 982 m 0,30,31
 852 1126 852 1126 778.5 1219 c 128,-1,32
 705 1312 705 1312 575 1312 c 0,33,34
 443 1312 443 1312 368 1223.5 c 128,-1,35
 293 1135 293 1135 293 992 c 0,36,37
 293 848 293 848 370.5 756.5 c 128,-1,38
 448 665 448 665 582 665 c 0,39,40
 711 665 711 665 781.5 753.5 c 128,-1,41
 852 842 852 842 852 982 c 0,30,31
EndSplineSet
EndChar

StartChar: colon
Encoding: 58 58 28
Width: 569
GlyphClass: 2
Flags: W
LayerCount: 2
Fore
SplineSet
185 857 m 1,0,-1
 185 1062 l 1,1,-1
 390 1062 l 1,2,-1
 390 857 l 1,3,-1
 185 857 l 1,0,-1
185 0 m 1,4,-1
 185 205 l 1,5,-1
 390 205 l 1,6,-1
 390 0 l 1,7,-1
 185 0 l 1,4,-1
EndSplineSet
EndChar

StartChar: semicolon
Encoding: 59 59 29
Width: 569
GlyphClass: 2
Flags: W
LayerCount: 2
Fore
SplineSet
182 857 m 1,0,-1
 182 1062 l 1,1,-1
 387 1062 l 1,2,-1
 387 857 l 1,3,-1
 182 857 l 1,0,-1
182 0 m 1,4,-1
 182 205 l 1,5,-1
 387 205 l 1,6,-1
 387 0 l 2,7,8
 388 -220 388 -220 220 -290 c 1,9,-1
 170 -213 l 1,10,11
 229 -187 229 -187 255.5 -136 c 128,-1,12
 282 -85 282 -85 284 0 c 1,13,-1
 182 0 l 1,4,-1
EndSplineSet
EndChar

StartChar: less
Encoding: 60 60 30
Width: 1196
GlyphClass: 2
Flags: W
LayerCount: 2
Fore
SplineSet
112 641 m 1,0,-1
 112 809 l 1,1,-1
 1083 1219 l 1,2,-1
 1083 1040 l 1,3,-1
 313 724 l 1,4,-1
 1083 405 l 1,5,-1
 1083 226 l 1,6,-1
 112 641 l 1,0,-1
EndSplineSet
EndChar

StartChar: equal
Encoding: 61 61 31
Width: 1196
GlyphClass: 2
Flags: W
LayerCount: 2
Fore
SplineSet
1082 861 m 1,0,-1
 114 861 l 1,1,-1
 114 1031 l 1,2,-1
 1082 1031 l 1,3,-1
 1082 861 l 1,0,-1
1082 416 m 1,4,-1
 114 416 l 1,5,-1
 114 586 l 1,6,-1
 1082 586 l 1,7,-1
 1082 416 l 1,4,-1
EndSplineSet
EndChar

StartChar: greater
Encoding: 62 62 32
Width: 1196
GlyphClass: 2
Flags: W
LayerCount: 2
Fore
SplineSet
1083 641 m 1,0,-1
 112 226 l 1,1,-1
 112 405 l 1,2,-1
 881 724 l 1,3,-1
 112 1040 l 1,4,-1
 112 1219 l 1,5,-1
 1083 809 l 1,6,-1
 1083 641 l 1,0,-1
EndSplineSet
EndChar

StartChar: question
Encoding: 63 63 33
Width: 1139
GlyphClass: 2
Flags: W
LayerCount: 2
Fore
SplineSet
90 1046 m 1,0,1
 101 1244 101 1244 229 1374 c 128,-1,2
 357 1504 357 1504 565 1504 c 0,3,4
 767 1504 767 1504 903.5 1389 c 128,-1,5
 1040 1274 1040 1274 1040 1105 c 0,6,7
 1040 1032 1040 1032 1018.5 972 c 128,-1,8
 997 912 997 912 963 869 c 128,-1,9
 929 826 929 826 887.5 786.5 c 128,-1,10
 846 747 846 747 804.5 706.5 c 128,-1,11
 763 666 763 666 729 620 c 128,-1,12
 695 574 695 574 673.5 507.5 c 128,-1,13
 652 441 652 441 652 361 c 1,14,-1
 472 361 l 1,15,-1
 474 436 l 2,16,17
 476 508 476 508 498 570 c 128,-1,18
 520 632 520 632 554.5 675.5 c 128,-1,19
 589 719 589 719 629.5 758 c 128,-1,20
 670 797 670 797 711 832.5 c 128,-1,21
 752 868 752 868 785 904.5 c 128,-1,22
 818 941 818 941 839 987.5 c 128,-1,23
 860 1034 860 1034 860 1088 c 0,24,25
 860 1132 860 1132 841.5 1175 c 128,-1,26
 823 1218 823 1218 788 1254 c 128,-1,27
 753 1290 753 1290 695.5 1312 c 128,-1,28
 638 1334 638 1334 568 1334 c 0,29,30
 318 1334 318 1334 275 1046 c 1,31,-1
 90 1046 l 1,0,1
461 0 m 1,32,-1
 461 205 l 1,33,-1
 666 205 l 1,34,-1
 666 0 l 1,35,-1
 461 0 l 1,32,-1
EndSplineSet
EndChar

StartChar: at
Encoding: 64 64 34
Width: 2079
GlyphClass: 2
Flags: W
LayerCount: 2
Fore
SplineSet
1354 -11 m 0,0,1
 1248 -11 1248 -11 1207.5 23 c 128,-1,2
 1167 57 1167 57 1161 121 c 1,3,4
 1048 -11 1048 -11 854 -11 c 0,5,6
 751 -11 751 -11 670 52.5 c 128,-1,7
 589 116 589 116 545.5 223 c 128,-1,8
 502 330 502 330 502 461 c 0,9,10
 502 586 502 586 547 704.5 c 128,-1,11
 592 823 592 823 663.5 907.5 c 128,-1,12
 735 992 735 992 827 1043.5 c 128,-1,13
 919 1095 919 1095 1011 1095 c 0,14,15
 1218 1095 1218 1095 1313 938 c 1,16,-1
 1347 1062 l 1,17,-1
 1526 1062 l 1,18,-1
 1380 379 l 2,19,20
 1363 297 1363 297 1352 229 c 1,21,22
 1354 191 1354 191 1378 164 c 128,-1,23
 1402 137 1402 137 1422 137 c 0,24,25
 1509 137 1509 137 1593 233 c 128,-1,26
 1677 329 1677 329 1726.5 463.5 c 128,-1,27
 1776 598 1776 598 1776 716 c 0,28,29
 1776 905 1776 905 1686 1049 c 128,-1,30
 1596 1193 1596 1193 1441.5 1269 c 128,-1,31
 1287 1345 1287 1345 1093 1345 c 0,32,33
 851 1345 851 1345 667.5 1232 c 128,-1,34
 484 1119 484 1119 387.5 924.5 c 128,-1,35
 291 730 291 730 291 485 c 0,36,37
 291 115 291 115 507.5 -84 c 128,-1,38
 724 -283 724 -283 1120 -283 c 0,39,40
 1244 -283 1244 -283 1353 -261 c 128,-1,41
 1462 -239 1462 -239 1535 -207.5 c 128,-1,42
 1608 -176 1608 -176 1669.5 -132.5 c 128,-1,43
 1731 -89 1731 -89 1764.5 -53.5 c 128,-1,44
 1798 -18 1798 -18 1824 19 c 1,45,-1
 2005 19 l 1,46,47
 1905 -187 1905 -187 1670 -309 c 128,-1,48
 1435 -431 1435 -431 1123 -431 c 0,49,50
 898 -431 898 -431 713 -373 c 128,-1,51
 528 -315 528 -315 393.5 -204 c 128,-1,52
 259 -93 259 -93 185 79 c 128,-1,53
 111 251 111 251 111 469 c 0,54,55
 111 689 111 689 183 878.5 c 128,-1,56
 255 1068 255 1068 383 1203.5 c 128,-1,57
 511 1339 511 1339 696.5 1416 c 128,-1,58
 882 1493 882 1493 1102 1493 c 0,59,60
 1343 1493 1343 1493 1537 1396.5 c 128,-1,61
 1731 1300 1731 1300 1843.5 1121 c 128,-1,62
 1956 942 1956 942 1956 713 c 0,63,64
 1956 584 1956 584 1908 453.5 c 128,-1,65
 1860 323 1860 323 1780.5 220.5 c 128,-1,66
 1701 118 1701 118 1588 53.5 c 128,-1,67
 1475 -11 1475 -11 1354 -11 c 0,0,1
682 453 m 0,68,69
 682 315 682 315 740 226 c 128,-1,70
 798 137 798 137 891 137 c 0,71,72
 969 137 969 137 1036.5 185 c 128,-1,73
 1104 233 1104 233 1148.5 308 c 128,-1,74
 1193 383 1193 383 1218 472.5 c 128,-1,75
 1243 562 1243 562 1243 649 c 0,76,77
 1243 732 1243 732 1221.5 793 c 128,-1,78
 1200 854 1200 854 1165.5 886 c 128,-1,79
 1131 918 1131 918 1095.5 932.5 c 128,-1,80
 1060 947 1060 947 1024 947 c 0,81,82
 943 947 943 947 875 896.5 c 128,-1,83
 807 846 807 846 766.5 769.5 c 128,-1,84
 726 693 726 693 704 610 c 128,-1,85
 682 527 682 527 682 453 c 0,68,69
EndSplineSet
EndChar

StartChar: A
Encoding: 65 65 35
Width: 1366
GlyphClass: 2
Flags: W
LayerCount: 2
Fore
SplineSet
1364 0 m 1,0,-1
 1159 0 l 1,1,-1
 969 477 l 1,2,-1
 396 477 l 1,3,-1
 206 0 l 1,4,-1
 1 0 l 1,5,-1
 580 1450 l 1,6,-1
 785 1450 l 1,7,-1
 1364 0 l 1,0,-1
682 1193 m 1,8,-1
 464 647 l 1,9,-1
 901 647 l 1,10,-1
 682 1193 l 1,8,-1
EndSplineSet
EndChar

StartChar: B
Encoding: 66 66 36
Width: 1139
GlyphClass: 2
Flags: W
LayerCount: 2
Fore
SplineSet
596 -11 m 0,0,1
 534 -11 534 -11 480.5 3.5 c 128,-1,2
 427 18 427 18 391.5 41 c 128,-1,3
 356 64 356 64 336 82 c 128,-1,4
 316 100 316 100 301 119 c 1,5,-1
 301 0 l 1,6,-1
 134 0 l 1,7,-1
 134 1466 l 1,8,-1
 314 1466 l 1,9,-1
 314 951 l 1,10,11
 429 1095 429 1095 605 1095 c 0,12,13
 812 1095 812 1095 933.5 942.5 c 128,-1,14
 1055 790 1055 790 1055 551 c 0,15,16
 1055 304 1055 304 933.5 146.5 c 128,-1,17
 812 -11 812 -11 596 -11 c 0,0,1
589 947 m 0,18,19
 470 947 470 947 391 827.5 c 128,-1,20
 312 708 312 708 312 546 c 0,21,22
 312 456 312 456 330 383 c 128,-1,23
 348 310 348 310 375.5 265.5 c 128,-1,24
 403 221 403 221 439.5 191 c 128,-1,25
 476 161 476 161 511 149 c 128,-1,26
 546 137 546 137 581 137 c 0,27,28
 723 137 723 137 799 249.5 c 128,-1,29
 875 362 875 362 875 539 c 0,30,31
 875 631 875 631 856.5 704 c 128,-1,32
 838 777 838 777 808.5 821.5 c 128,-1,33
 779 866 779 866 740 895 c 128,-1,34
 701 924 701 924 664 935.5 c 128,-1,35
 627 947 627 947 589 947 c 0,18,19
EndSplineSet
EndChar

StartChar: C
Encoding: 67 67 37
Width: 1024
GlyphClass: 2
Flags: W
LayerCount: 2
Fore
SplineSet
561 137 m 0,0,1
 610 137 610 137 654 151 c 128,-1,2
 698 165 698 165 737.5 194 c 128,-1,3
 777 223 777 223 801.5 276.5 c 128,-1,4
 826 330 826 330 828 402 c 1,5,-1
 1005 402 l 1,6,7
 999 204 999 204 881.5 96.5 c 128,-1,8
 764 -11 764 -11 563 -11 c 0,9,10
 487 -11 487 -11 416 11 c 128,-1,11
 345 33 345 33 284 78.5 c 128,-1,12
 223 124 223 124 177.5 187.5 c 128,-1,13
 132 251 132 251 106 339.5 c 128,-1,14
 80 428 80 428 80 531 c 0,15,16
 80 790 80 790 207 942.5 c 128,-1,17
 334 1095 334 1095 564 1095 c 0,18,19
 673 1095 673 1095 756 1064.5 c 128,-1,20
 839 1034 839 1034 884.5 990.5 c 128,-1,21
 930 947 930 947 958 889.5 c 128,-1,22
 986 832 986 832 994.5 788.5 c 128,-1,23
 1003 745 1003 745 1003 705 c 1,24,-1
 828 705 l 1,25,26
 818 800 818 800 746 873.5 c 128,-1,27
 674 947 674 947 571 947 c 0,28,29
 420 947 420 947 340 838.5 c 128,-1,30
 260 730 260 730 260 536 c 0,31,32
 260 448 260 448 280 377 c 128,-1,33
 300 306 300 306 331.5 262.5 c 128,-1,34
 363 219 363 219 404 189.5 c 128,-1,35
 445 160 445 160 484 148.5 c 128,-1,36
 523 137 523 137 561 137 c 0,0,1
EndSplineSet
EndChar

StartChar: D
Encoding: 68 68 38
Width: 1139
GlyphClass: 2
Flags: W
LayerCount: 2
Fore
SplineSet
514 1095 m 0,0,1
 631 1095 631 1095 697 1058.5 c 128,-1,2
 763 1022 763 1022 806 966 c 1,3,-1
 806 1466 l 1,4,-1
 991 1466 l 1,5,-1
 991 0 l 1,6,-1
 818 0 l 1,7,-1
 818 122 l 1,8,9
 727 -11 727 -11 522 -11 c 0,10,11
 384 -11 384 -11 280 60.5 c 128,-1,12
 176 132 176 132 123 255 c 128,-1,13
 70 378 70 378 70 534 c 0,14,15
 70 695 70 695 119.5 820.5 c 128,-1,16
 169 946 169 946 271 1020.5 c 128,-1,17
 373 1095 373 1095 514 1095 c 0,0,1
539 947 m 0,18,19
 457 947 457 947 397.5 910 c 128,-1,20
 338 873 338 873 307.5 810 c 128,-1,21
 277 747 277 747 263.5 681.5 c 128,-1,22
 250 616 250 616 250 542 c 0,23,24
 250 450 250 450 269 377.5 c 128,-1,25
 288 305 288 305 318 261 c 128,-1,26
 348 217 348 217 387.5 188 c 128,-1,27
 427 159 427 159 464 148 c 128,-1,28
 501 137 501 137 539 137 c 0,29,30
 583 137 583 137 630 164.5 c 128,-1,31
 677 192 677 192 717.5 240.5 c 128,-1,32
 758 289 758 289 784.5 364.5 c 128,-1,33
 811 440 811 440 811 527 c 0,34,35
 811 718 811 718 733.5 832.5 c 128,-1,36
 656 947 656 947 539 947 c 0,18,19
EndSplineSet
EndChar

StartChar: E
Encoding: 69 69 39
Width: 1322
GlyphClass: 2
Flags: W
LayerCount: 2
Fore
SplineSet
168 0 m 1,0,-1
 168 1450 l 1,1,-1
 1228 1450 l 1,2,-1
 1228 1280 l 1,3,-1
 348 1280 l 1,4,-1
 348 821 l 1,5,-1
 1027 821 l 1,6,-1
 1027 651 l 1,7,-1
 348 651 l 1,8,-1
 348 170 l 1,9,-1
 1228 170 l 1,10,-1
 1228 0 l 1,11,-1
 168 0 l 1,0,-1
EndSplineSet
EndChar

StartChar: F
Encoding: 70 70 40
Width: 1251
GlyphClass: 2
Flags: W
LayerCount: 2
Fore
SplineSet
168 0 m 1,0,-1
 168 1450 l 1,1,-1
 1157 1450 l 1,2,-1
 1157 1280 l 1,3,-1
 348 1280 l 1,4,-1
 348 821 l 1,5,-1
 1009 821 l 1,6,-1
 1009 651 l 1,7,-1
 348 651 l 1,8,-1
 348 0 l 1,9,-1
 168 0 l 1,0,-1
EndSplineSet
EndChar

StartChar: G
Encoding: 71 71 41
Width: 1479
GlyphClass: 2
Flags: W
LayerCount: 2
Fore
SplineSet
282 748 m 0,0,1
 282 697 282 697 289.5 644 c 128,-1,2
 297 591 297 591 314 533 c 128,-1,3
 331 475 331 475 357.5 422 c 128,-1,4
 384 369 384 369 424.5 320.5 c 128,-1,5
 465 272 465 272 516 236.5 c 128,-1,6
 567 201 567 201 637 180 c 128,-1,7
 707 159 707 159 788 159 c 0,8,9
 861 159 861 159 936 184.5 c 128,-1,10
 1011 210 1011 210 1072.5 254.5 c 128,-1,11
 1134 299 1134 299 1173 367.5 c 128,-1,12
 1212 436 1212 436 1212 514 c 1,13,-1
 905 514 l 1,14,-1
 905 684 l 1,15,-1
 1404 684 l 1,16,17
 1404 318 1404 318 1256.5 153.5 c 128,-1,18
 1109 -11 1109 -11 791 -11 c 0,19,20
 681 -11 681 -11 581.5 16 c 128,-1,21
 482 43 482 43 393.5 102.5 c 128,-1,22
 305 162 305 162 241 249 c 128,-1,23
 177 336 177 336 139.5 464 c 128,-1,24
 102 592 102 592 102 747 c 0,25,26
 102 912 102 912 152.5 1049.5 c 128,-1,27
 203 1187 203 1187 294 1282 c 128,-1,28
 385 1377 385 1377 513.5 1429.5 c 128,-1,29
 642 1482 642 1482 794 1482 c 0,30,31
 919 1482 919 1482 1021 1446.5 c 128,-1,32
 1123 1411 1123 1411 1191.5 1348.5 c 128,-1,33
 1260 1286 1260 1286 1304 1213.5 c 128,-1,34
 1348 1141 1348 1141 1373 1055 c 1,35,-1
 1185 1055 l 1,36,37
 1151 1168 1151 1168 1054.5 1240 c 128,-1,38
 958 1312 958 1312 790 1312 c 0,39,40
 635 1312 635 1312 518.5 1238 c 128,-1,41
 402 1164 402 1164 342 1037 c 128,-1,42
 282 910 282 910 282 748 c 0,0,1
EndSplineSet
EndChar

StartChar: H
Encoding: 72 72 42
Width: 1479
GlyphClass: 2
Flags: W
LayerCount: 2
Fore
SplineSet
164 0 m 1,0,-1
 164 1450 l 1,1,-1
 344 1450 l 1,2,-1
 344 843 l 1,3,-1
 1134 843 l 1,4,-1
 1134 1450 l 1,5,-1
 1314 1450 l 1,6,-1
 1314 0 l 1,7,-1
 1134 0 l 1,8,-1
 1134 673 l 1,9,-1
 344 673 l 1,10,-1
 344 0 l 1,11,-1
 164 0 l 1,0,-1
EndSplineSet
EndChar

StartChar: I
Encoding: 73 73 43
Width: 650
GlyphClass: 2
Flags: W
LayerCount: 2
Fore
SplineSet
625 170 m 1,0,-1
 625 0 l 1,1,-1
 25 0 l 1,2,-1
 25 170 l 1,3,-1
 235 170 l 1,4,-1
 235 1280 l 1,5,-1
 25 1280 l 1,6,-1
 25 1450 l 1,7,-1
 625 1450 l 1,8,-1
 625 1280 l 1,9,-1
 415 1280 l 1,10,-1
 415 170 l 1,11,-1
 625 170 l 1,0,-1
EndSplineSet
EndChar

StartChar: J
Encoding: 74 74 44
Width: 455
GlyphClass: 2
Flags: W
LayerCount: 2
Fore
SplineSet
134 1257 m 1,0,-1
 134 1466 l 1,1,-1
 314 1466 l 1,2,-1
 314 1257 l 1,3,-1
 134 1257 l 1,0,-1
314 -58 m 2,4,5
 314 -256 314 -256 242.5 -342 c 128,-1,6
 171 -428 171 -428 39 -428 c 0,7,8
 -23 -428 -23 -428 -94 -412 c 1,9,-1
 -94 -272 l 1,10,11
 -38 -280 -38 -280 -7 -280 c 0,12,13
 67 -280 67 -280 100.5 -229 c 128,-1,14
 134 -178 134 -178 134 -54 c 2,15,-1
 134 1062 l 1,16,-1
 314 1062 l 1,17,-1
 314 -58 l 2,4,5
EndSplineSet
EndChar

StartChar: K
Encoding: 75 75 45
Width: 1139
GlyphClass: 2
Flags: W
LayerCount: 2
Fore
SplineSet
546 1095 m 0,0,1
 582 1095 582 1095 615 1090 c 128,-1,2
 648 1085 648 1085 674.5 1075 c 128,-1,3
 701 1065 701 1065 721.5 1055.5 c 128,-1,4
 742 1046 742 1046 761 1031.5 c 128,-1,5
 780 1017 780 1017 789.5 1009 c 128,-1,6
 799 1001 799 1001 813 987 c 128,-1,7
 827 973 827 973 828 972 c 2,8,-1
 828 1062 l 1,9,-1
 1008 1062 l 1,10,-1
 1008 -390 l 1,11,-1
 828 -390 l 1,12,-1
 828 133 l 1,13,14
 713 -11 713 -11 537 -11 c 0,15,16
 330 -11 330 -11 208.5 141.5 c 128,-1,17
 87 294 87 294 87 533 c 0,18,19
 87 780 87 780 208.5 937.5 c 128,-1,20
 330 1095 330 1095 546 1095 c 0,0,1
556 137 m 0,21,22
 635 137 635 137 698 193.5 c 128,-1,23
 761 250 761 250 794.5 341.5 c 128,-1,24
 828 433 828 433 828 538 c 0,25,26
 828 629 828 629 810.5 701.5 c 128,-1,27
 793 774 793 774 766 818.5 c 128,-1,28
 739 863 739 863 703.5 893 c 128,-1,29
 668 923 668 923 633.5 935 c 128,-1,30
 599 947 599 947 564 947 c 0,31,32
 502 947 502 947 451.5 924.5 c 128,-1,33
 401 902 401 902 367 863.5 c 128,-1,34
 333 825 333 825 310 773 c 128,-1,35
 287 721 287 721 277 664 c 128,-1,36
 267 607 267 607 267 545 c 0,37,38
 267 453 267 453 286 380 c 128,-1,39
 305 307 305 307 334.5 262.5 c 128,-1,40
 364 218 364 218 403.5 189 c 128,-1,41
 443 160 443 160 480.5 148.5 c 128,-1,42
 518 137 518 137 556 137 c 0,21,22
EndSplineSet
EndChar

StartChar: L
Encoding: 76 76 46
Width: 1139
GlyphClass: 2
Flags: W
LayerCount: 2
Fore
SplineSet
150 0 m 1,0,-1
 150 1450 l 1,1,-1
 330 1450 l 1,2,-1
 330 170 l 1,3,-1
 1060 170 l 1,4,-1
 1060 0 l 1,5,-1
 150 0 l 1,0,-1
EndSplineSet
EndChar

StartChar: M
Encoding: 77 77 47
Width: 1706
GlyphClass: 2
Flags: W
LayerCount: 2
Fore
SplineSet
764 707 m 2,0,1
 764 838 764 838 716.5 892.5 c 128,-1,2
 669 947 669 947 578 947 c 0,3,4
 505 947 505 947 452.5 920 c 128,-1,5
 400 893 400 893 370.5 840.5 c 128,-1,6
 341 788 341 788 328 721.5 c 128,-1,7
 315 655 315 655 315 568 c 2,8,-1
 315 0 l 1,9,-1
 135 0 l 1,10,-1
 135 1062 l 1,11,-1
 315 1062 l 1,12,-1
 315 939 l 2,13,14
 316 940 316 940 334 961 c 128,-1,15
 352 982 352 982 364.5 994.5 c 128,-1,16
 377 1007 377 1007 405 1028.5 c 128,-1,17
 433 1050 433 1050 460.5 1062.5 c 128,-1,18
 488 1075 488 1075 530 1085 c 128,-1,19
 572 1095 572 1095 618 1095 c 0,20,21
 850 1095 850 1095 916 909 c 1,22,23
 1042 1095 1042 1095 1245 1095 c 0,24,25
 1400 1095 1400 1095 1486.5 1008 c 128,-1,26
 1573 921 1573 921 1573 736 c 2,27,-1
 1573 0 l 1,28,-1
 1393 0 l 1,29,-1
 1393 686 l 2,30,31
 1393 826 1393 826 1349.5 886.5 c 128,-1,32
 1306 947 1306 947 1205 947 c 0,33,34
 1173 947 1173 947 1143 941.5 c 128,-1,35
 1113 936 1113 936 1075 916 c 128,-1,36
 1037 896 1037 896 1009.5 864 c 128,-1,37
 982 832 982 832 963 772.5 c 128,-1,38
 944 713 944 713 944 634 c 2,39,-1
 944 0 l 1,40,-1
 764 0 l 1,41,-1
 764 707 l 2,0,1
EndSplineSet
EndChar

StartChar: N
Encoding: 78 78 48
Width: 1139
GlyphClass: 2
Flags: W
LayerCount: 2
Fore
SplineSet
596 947 m 0,0,1
 455 947 455 947 385 857 c 128,-1,2
 315 767 315 767 315 597 c 2,3,-1
 315 0 l 1,4,-1
 135 0 l 1,5,-1
 135 1064 l 1,6,-1
 315 1064 l 1,7,-1
 315 970 l 1,8,9
 362 1032 362 1032 439 1063.5 c 128,-1,10
 516 1095 516 1095 600 1095 c 0,11,12
 692 1095 692 1095 764 1068 c 128,-1,13
 836 1041 836 1041 879.5 999 c 128,-1,14
 923 957 923 957 951 899.5 c 128,-1,15
 979 842 979 842 989.5 787 c 128,-1,16
 1000 732 1000 732 1000 673 c 2,17,-1
 1000 0 l 1,18,-1
 820 0 l 1,19,-1
 820 689 l 2,20,21
 820 947 820 947 596 947 c 0,0,1
EndSplineSet
EndChar

StartChar: O
Encoding: 79 79 49
Width: 1139
GlyphClass: 2
Flags: W
LayerCount: 2
Fore
SplineSet
566 -11 m 0,0,1
 328 -11 328 -11 198 133.5 c 128,-1,2
 68 278 68 278 68 536 c 0,3,4
 68 793 68 793 198.5 944 c 128,-1,5
 329 1095 329 1095 566 1095 c 0,6,7
 796 1095 796 1095 929.5 947 c 128,-1,8
 1063 799 1063 799 1063 551 c 0,9,10
 1063 426 1063 426 1035.5 328 c 128,-1,11
 1008 230 1008 230 961.5 167 c 128,-1,12
 915 104 915 104 850 63 c 128,-1,13
 785 22 785 22 715.5 5.5 c 128,-1,14
 646 -11 646 -11 566 -11 c 0,0,1
566 947 m 0,15,16
 414 947 414 947 331 834.5 c 128,-1,17
 248 722 248 722 248 536 c 0,18,19
 248 441 248 441 269.5 368 c 128,-1,20
 291 295 291 295 323.5 252.5 c 128,-1,21
 356 210 356 210 400.5 183 c 128,-1,22
 445 156 445 156 484.5 146.5 c 128,-1,23
 524 137 524 137 566 137 c 0,24,25
 720 137 720 137 801.5 246 c 128,-1,26
 883 355 883 355 883 542 c 0,27,28
 883 619 883 619 868.5 683 c 128,-1,29
 854 747 854 747 828.5 790 c 128,-1,30
 803 833 803 833 771.5 864.5 c 128,-1,31
 740 896 740 896 703.5 913.5 c 128,-1,32
 667 931 667 931 633 939 c 128,-1,33
 599 947 599 947 566 947 c 0,15,16
EndSplineSet
EndChar

StartChar: P
Encoding: 80 80 50
Width: 1366
GlyphClass: 2
Flags: W
LayerCount: 2
Fore
SplineSet
158 0 m 1,0,-1
 158 1450 l 1,1,-1
 711 1450 l 2,2,3
 849 1450 849 1450 951.5 1427.5 c 128,-1,4
 1054 1405 1054 1405 1115.5 1367.5 c 128,-1,5
 1177 1330 1177 1330 1214 1273.5 c 128,-1,6
 1251 1217 1251 1217 1264 1158.5 c 128,-1,7
 1277 1100 1277 1100 1277 1026 c 0,8,9
 1277 580 1277 580 728 580 c 2,10,-1
 338 580 l 1,11,-1
 338 0 l 1,12,-1
 158 0 l 1,0,-1
731 750 m 2,13,14
 1097 750 1097 750 1097 1017 c 0,15,16
 1097 1079 1097 1079 1080 1124.5 c 128,-1,17
 1063 1170 1063 1170 1022.5 1206.5 c 128,-1,18
 982 1243 982 1243 908 1261.5 c 128,-1,19
 834 1280 834 1280 727 1280 c 2,20,-1
 338 1280 l 1,21,-1
 338 750 l 1,22,-1
 731 750 l 2,13,14
EndSplineSet
EndChar

StartChar: Q
Encoding: 81 81 51
Width: 1139
GlyphClass: 2
Flags: W
LayerCount: 2
Fore
SplineSet
546 1095 m 0,0,1
 582 1095 582 1095 615 1090 c 128,-1,2
 648 1085 648 1085 674.5 1075 c 128,-1,3
 701 1065 701 1065 721.5 1055.5 c 128,-1,4
 742 1046 742 1046 761 1031.5 c 128,-1,5
 780 1017 780 1017 789.5 1009 c 128,-1,6
 799 1001 799 1001 813 987 c 128,-1,7
 827 973 827 973 828 972 c 2,8,-1
 828 1062 l 1,9,-1
 1008 1062 l 1,10,-1
 1008 -390 l 1,11,-1
 828 -390 l 1,12,-1
 828 133 l 1,13,14
 713 -11 713 -11 537 -11 c 0,15,16
 330 -11 330 -11 208.5 141.5 c 128,-1,17
 87 294 87 294 87 533 c 0,18,19
 87 780 87 780 208.5 937.5 c 128,-1,20
 330 1095 330 1095 546 1095 c 0,0,1
556 137 m 0,21,22
 635 137 635 137 698 193.5 c 128,-1,23
 761 250 761 250 794.5 341.5 c 128,-1,24
 828 433 828 433 828 538 c 0,25,26
 828 629 828 629 810.5 701.5 c 128,-1,27
 793 774 793 774 766 818.5 c 128,-1,28
 739 863 739 863 703.5 893 c 128,-1,29
 668 923 668 923 633.5 935 c 128,-1,30
 599 947 599 947 564 947 c 0,31,32
 502 947 502 947 451.5 924.5 c 128,-1,33
 401 902 401 902 367 863.5 c 128,-1,34
 333 825 333 825 310 773 c 128,-1,35
 287 721 287 721 277 664 c 128,-1,36
 267 607 267 607 267 545 c 0,37,38
 267 453 267 453 286 380 c 128,-1,39
 305 307 305 307 334.5 262.5 c 128,-1,40
 364 218 364 218 403.5 189 c 128,-1,41
 443 160 443 160 480.5 148.5 c 128,-1,42
 518 137 518 137 556 137 c 0,21,22
EndSplineSet
EndChar

StartChar: R
Encoding: 82 82 52
Width: 682
GlyphClass: 2
Flags: W
LayerCount: 2
Fore
SplineSet
518 947 m 0,0,1
 423 947 423 947 368 851 c 128,-1,2
 313 755 313 755 313 575 c 2,3,-1
 313 0 l 1,4,-1
 133 0 l 1,5,-1
 133 1062 l 1,6,-1
 313 1062 l 1,7,-1
 313 972 l 1,8,9
 333 995 333 995 346 1008 c 128,-1,10
 359 1021 359 1021 389 1045.5 c 128,-1,11
 419 1070 419 1070 455.5 1082.5 c 128,-1,12
 492 1095 492 1095 533 1095 c 0,13,14
 631 1095 631 1095 710 1046 c 1,15,-1
 648 908 l 1,16,17
 582 947 582 947 518 947 c 0,0,1
EndSplineSet
EndChar

StartChar: S
Encoding: 83 83 53
Width: 1024
GlyphClass: 2
Flags: W
LayerCount: 2
Fore
SplineSet
945 325 m 0,0,1
 945 175 945 175 824.5 82 c 128,-1,2
 704 -11 704 -11 517 -11 c 0,3,4
 313 -11 313 -11 194 84.5 c 128,-1,5
 75 180 75 180 63 358 c 1,6,-1
 241 358 l 1,7,8
 255 252 255 252 325 194.5 c 128,-1,9
 395 137 395 137 516 137 c 0,10,11
 618 137 618 137 691.5 186.5 c 128,-1,12
 765 236 765 236 765 306 c 0,13,14
 765 337 765 337 751 362 c 128,-1,15
 737 387 737 387 717 403 c 128,-1,16
 697 419 697 419 661.5 432.5 c 128,-1,17
 626 446 626 446 595 453.5 c 128,-1,18
 564 461 564 461 517 470 c 0,19,20
 338 504 338 504 269 532 c 0,21,22
 135 586 135 586 104 699 c 0,23,24
 93 737 93 737 93 785 c 0,25,26
 93 885 93 885 147 956.5 c 128,-1,27
 201 1028 201 1028 288 1061.5 c 128,-1,28
 375 1095 375 1095 484 1095 c 0,29,30
 584 1095 584 1095 662 1070.5 c 128,-1,31
 740 1046 740 1046 784.5 1010 c 128,-1,32
 829 974 829 974 857.5 927.5 c 128,-1,33
 886 881 886 881 895.5 842.5 c 128,-1,34
 905 804 905 804 905 769 c 1,35,-1
 729 769 l 1,36,37
 705 947 705 947 499 947 c 0,38,39
 402 947 402 947 337.5 903 c 128,-1,40
 273 859 273 859 273 783 c 0,41,42
 273 756 273 756 284.5 735.5 c 128,-1,43
 296 715 296 715 314 701.5 c 128,-1,44
 332 688 332 688 366 676 c 128,-1,45
 400 664 400 664 432 656.5 c 128,-1,46
 464 649 464 649 517 639 c 0,47,48
 688 607 688 607 750 585 c 0,49,50
 896 532 896 532 932 418 c 0,51,52
 945 376 945 376 945 325 c 0,0,1
EndSplineSet
EndChar

StartChar: T
Encoding: 84 84 54
Width: 569
GlyphClass: 2
Flags: W
LayerCount: 2
Fore
SplineSet
347 295 m 2,0,1
 347 262 347 262 348.5 242 c 128,-1,2
 350 222 350 222 355.5 199.5 c 128,-1,3
 361 177 361 177 371.5 165 c 128,-1,4
 382 153 382 153 401.5 145 c 128,-1,5
 421 137 421 137 449 137 c 0,6,7
 470 137 470 137 528 145 c 1,8,-1
 554 4 l 1,9,10
 482 -11 482 -11 411 -11 c 0,11,12
 334 -11 334 -11 285 9 c 128,-1,13
 236 29 236 29 210.5 73 c 128,-1,14
 185 117 185 117 176 172 c 128,-1,15
 167 227 167 227 167 313 c 2,16,-1
 167 914 l 1,17,-1
 18 914 l 1,18,-1
 18 1062 l 1,19,-1
 167 1062 l 1,20,-1
 167 1433 l 1,21,-1
 347 1433 l 1,22,-1
 347 1062 l 1,23,-1
 497 1062 l 1,24,-1
 497 914 l 1,25,-1
 347 914 l 1,26,-1
 347 295 l 2,0,1
EndSplineSet
EndChar

StartChar: U
Encoding: 85 85 55
Width: 1139
GlyphClass: 2
Flags: W
LayerCount: 2
Fore
SplineSet
284 397 m 2,0,1
 284 323 284 323 306.5 269.5 c 128,-1,2
 329 216 329 216 367.5 188.5 c 128,-1,3
 406 161 406 161 447 149 c 128,-1,4
 488 137 488 137 534 137 c 0,5,6
 789 137 789 137 789 392 c 2,7,-1
 789 1062 l 1,8,-1
 969 1062 l 1,9,-1
 969 0 l 1,10,-1
 789 0 l 1,11,-1
 789 63 l 1,12,13
 723 -11 723 -11 541 -11 c 0,14,15
 332 -11 332 -11 218 104.5 c 128,-1,16
 104 220 104 220 104 411 c 2,17,-1
 104 1062 l 1,18,-1
 284 1062 l 1,19,-1
 284 397 l 2,0,1
EndSplineSet
EndChar

StartChar: V
Encoding: 86 86 56
Width: 1024
GlyphClass: 2
Flags: W
LayerCount: 2
Fore
SplineSet
429 0 m 1,0,-1
 26 1062 l 1,1,-1
 216 1062 l 1,2,-1
 520 269 l 1,3,-1
 810 1062 l 1,4,-1
 1000 1062 l 1,5,-1
 599 0 l 1,6,-1
 429 0 l 1,0,-1
EndSplineSet
EndChar

StartChar: W
Encoding: 87 87 57
Width: 1479
GlyphClass: 2
Flags: W
LayerCount: 2
Fore
SplineSet
1380 733 m 0,0,1
 1380 0 1380 0 697 0 c 2,2,-1
 168 0 l 1,3,-1
 168 1450 l 1,4,-1
 673 1450 l 2,5,6
 839 1450 839 1450 963.5 1414 c 128,-1,7
 1088 1378 1088 1378 1166.5 1316 c 128,-1,8
 1245 1254 1245 1254 1293.5 1161 c 128,-1,9
 1342 1068 1342 1068 1361 965.5 c 128,-1,10
 1380 863 1380 863 1380 733 c 0,0,1
1200 736 m 0,11,12
 1200 862 1200 862 1170 958.5 c 128,-1,13
 1140 1055 1140 1055 1090.5 1115 c 128,-1,14
 1041 1175 1041 1175 971 1213 c 128,-1,15
 901 1251 901 1251 828 1265.5 c 128,-1,16
 755 1280 755 1280 670 1280 c 2,17,-1
 348 1280 l 1,18,-1
 348 170 l 1,19,-1
 675 170 l 2,20,21
 793 170 793 170 886.5 201.5 c 128,-1,22
 980 233 980 233 1051.5 298.5 c 128,-1,23
 1123 364 1123 364 1161.5 475 c 128,-1,24
 1200 586 1200 586 1200 736 c 0,11,12
EndSplineSet
EndChar

StartChar: X
Encoding: 88 88 58
Width: 1251
GlyphClass: 2
Flags: W
LayerCount: 2
Fore
SplineSet
538 0 m 1,0,-1
 538 1280 l 1,1,-1
 48 1280 l 1,2,-1
 48 1450 l 1,3,-1
 1210 1450 l 1,4,-1
 1210 1280 l 1,5,-1
 718 1280 l 1,6,-1
 718 0 l 1,7,-1
 538 0 l 1,0,-1
EndSplineSet
EndChar

StartChar: Y
Encoding: 89 89 59
Width: 1024
GlyphClass: 2
Flags: W
LayerCount: 2
Fore
SplineSet
127 -415 m 1,0,-1
 107 -266 l 1,1,2
 160 -280 160 -280 214 -280 c 0,3,4
 271 -280 271 -280 312.5 -260.5 c 128,-1,5
 354 -241 354 -241 376.5 -214.5 c 128,-1,6
 399 -188 399 -188 412.5 -146 c 128,-1,7
 426 -104 426 -104 430 -73.5 c 128,-1,8
 434 -43 434 -43 436 -2 c 1,9,-1
 33 1062 l 1,10,-1
 227 1062 l 1,11,-1
 525 201 l 1,12,-1
 826 1062 l 1,13,-1
 1006 1062 l 1,14,-1
 602 -1 l 1,15,16
 596 -54 596 -54 588.5 -96 c 128,-1,17
 581 -138 581 -138 565 -191 c 128,-1,18
 549 -244 549 -244 523 -283 c 128,-1,19
 497 -322 497 -322 459.5 -356.5 c 128,-1,20
 422 -391 422 -391 366 -409.5 c 128,-1,21
 310 -428 310 -428 239 -428 c 0,22,23
 160 -428 160 -428 127 -415 c 1,0,-1
EndSplineSet
EndChar

StartChar: Z
Encoding: 90 90 60
Width: 455
GlyphClass: 2
Flags: W
LayerCount: 2
Fore
SplineSet
134 1257 m 1,0,-1
 134 1466 l 1,1,-1
 314 1466 l 1,2,-1
 314 1257 l 1,3,-1
 134 1257 l 1,0,-1
314 -58 m 2,4,5
 314 -256 314 -256 242.5 -342 c 128,-1,6
 171 -428 171 -428 39 -428 c 0,7,8
 -23 -428 -23 -428 -94 -412 c 1,9,-1
 -94 -272 l 1,10,11
 -38 -280 -38 -280 -7 -280 c 0,12,13
 67 -280 67 -280 100.5 -229 c 128,-1,14
 134 -178 134 -178 134 -54 c 2,15,-1
 134 1062 l 1,16,-1
 314 1062 l 1,17,-1
 314 -58 l 2,4,5
EndSplineSet
EndChar

StartChar: bracketleft
Encoding: 91 91 61
Width: 569
GlyphClass: 2
Flags: W
LayerCount: 2
Fore
SplineSet
139 -407 m 1,0,-1
 139 1466 l 1,1,-1
 536 1466 l 1,2,-1
 536 1318 l 1,3,-1
 319 1318 l 1,4,-1
 319 -259 l 1,5,-1
 536 -259 l 1,6,-1
 536 -407 l 1,7,-1
 139 -407 l 1,0,-1
EndSplineSet
EndChar

StartChar: backslash
Encoding: 92 92 62
Width: 569
GlyphClass: 2
Flags: W
LayerCount: 2
Fore
SplineSet
425 -25 m 1,0,-1
 0 1491 l 1,1,-1
 145 1491 l 1,2,-1
 569 -25 l 1,3,-1
 425 -25 l 1,0,-1
EndSplineSet
EndChar

StartChar: bracketright
Encoding: 93 93 63
Width: 569
GlyphClass: 2
Flags: W
LayerCount: 2
Fore
SplineSet
436 -407 m 1,0,-1
 39 -407 l 1,1,-1
 39 -259 l 1,2,-1
 256 -259 l 1,3,-1
 256 1318 l 1,4,-1
 39 1318 l 1,5,-1
 39 1466 l 1,6,-1
 436 1466 l 1,7,-1
 436 -407 l 1,0,-1
EndSplineSet
EndChar

StartChar: asciicircum
Encoding: 94 94 64
Width: 961
GlyphClass: 2
Flags: W
LayerCount: 2
Fore
SplineSet
239 690 m 1,0,-1
 54 690 l 1,1,-1
 407 1491 l 1,2,-1
 552 1491 l 1,3,-1
 907 690 l 1,4,-1
 726 690 l 1,5,-1
 479 1238 l 1,6,-1
 239 690 l 1,0,-1
EndSplineSet
EndChar

StartChar: underscore
Encoding: 95 95 65
Width: 1139
GlyphClass: 2
Flags: W
LayerCount: 2
Fore
SplineSet
-31 -407 m 1,0,-1
 -31 -259 l 1,1,-1
 1162 -259 l 1,2,-1
 1162 -407 l 1,3,-1
 -31 -407 l 1,0,-1
EndSplineSet
EndChar

StartChar: grave
Encoding: 96 96 66
Width: 682
GlyphClass: 2
Flags: W
LayerCount: 2
Fore
SplineSet
465 1194 m 1,0,-1
 320 1194 l 1,1,-1
 89 1474 l 1,2,-1
 330 1474 l 1,3,-1
 465 1194 l 1,0,-1
EndSplineSet
EndChar

StartChar: a
Encoding: 97 97 67
Width: 1139
GlyphClass: 2
Flags: W
LayerCount: 2
Fore
SplineSet
995 458 m 2,0,1
 995 231 995 231 1004.5 149.5 c 128,-1,2
 1014 68 1014 68 1052 0 c 1,3,-1
 866 0 l 1,4,5
 838 55 838 55 830 131 c 1,6,7
 738 65 738 65 647.5 27 c 128,-1,8
 557 -11 557 -11 437 -11 c 0,9,10
 354 -11 354 -11 289 9 c 128,-1,11
 224 29 224 29 184.5 60 c 128,-1,12
 145 91 145 91 119 132.5 c 128,-1,13
 93 174 93 174 83.5 213 c 128,-1,14
 74 252 74 252 74 293 c 0,15,16
 74 357 74 357 98.5 415 c 128,-1,17
 123 473 123 473 183 523.5 c 128,-1,18
 243 574 243 574 332 598 c 0,19,20
 374 609 374 609 551 633 c 128,-1,21
 728 657 728 657 815 687 c 1,22,23
 815 734 815 734 810 768.5 c 128,-1,24
 805 803 805 803 789.5 838.5 c 128,-1,25
 774 874 774 874 746.5 896.5 c 128,-1,26
 719 919 719 919 671.5 933 c 128,-1,27
 624 947 624 947 558 947 c 0,28,29
 432 947 432 947 370.5 901.5 c 128,-1,30
 309 856 309 856 281 744 c 1,31,-1
 105 768 l 1,32,33
 163 1095 163 1095 584 1095 c 0,34,35
 665 1095 665 1095 728 1084 c 128,-1,36
 791 1073 791 1073 834 1055 c 128,-1,37
 877 1037 877 1037 907.5 1006 c 128,-1,38
 938 975 938 975 954.5 945 c 128,-1,39
 971 915 971 915 980.5 869.5 c 128,-1,40
 990 824 990 824 992.5 786.5 c 128,-1,41
 995 749 995 749 995 694 c 2,42,-1
 995 458 l 2,0,1
254 293 m 0,43,44
 254 272 254 272 264.5 247.5 c 128,-1,45
 275 223 275 223 298 197 c 128,-1,46
 321 171 321 171 367 154 c 128,-1,47
 413 137 413 137 474 137 c 0,48,49
 639 137 639 137 727 221.5 c 128,-1,50
 815 306 815 306 815 463 c 2,51,-1
 815 539 l 1,52,53
 755 514 755 514 669.5 496 c 128,-1,54
 584 478 584 478 516.5 467 c 128,-1,55
 449 456 449 456 386.5 438 c 128,-1,56
 324 420 324 420 289 384.5 c 128,-1,57
 254 349 254 349 254 293 c 0,43,44
EndSplineSet
EndChar

StartChar: b
Encoding: 98 98 68
Width: 1139
GlyphClass: 2
Flags: W
LayerCount: 2
Fore
SplineSet
596 -11 m 0,0,1
 534 -11 534 -11 480.5 3.5 c 128,-1,2
 427 18 427 18 391.5 41 c 128,-1,3
 356 64 356 64 336 82 c 128,-1,4
 316 100 316 100 301 119 c 1,5,-1
 301 0 l 1,6,-1
 134 0 l 1,7,-1
 134 1466 l 1,8,-1
 314 1466 l 1,9,-1
 314 951 l 1,10,11
 429 1095 429 1095 605 1095 c 0,12,13
 812 1095 812 1095 933.5 942.5 c 128,-1,14
 1055 790 1055 790 1055 551 c 0,15,16
 1055 304 1055 304 933.5 146.5 c 128,-1,17
 812 -11 812 -11 596 -11 c 0,0,1
589 947 m 0,18,19
 470 947 470 947 391 827.5 c 128,-1,20
 312 708 312 708 312 546 c 0,21,22
 312 456 312 456 330 383 c 128,-1,23
 348 310 348 310 375.5 265.5 c 128,-1,24
 403 221 403 221 439.5 191 c 128,-1,25
 476 161 476 161 511 149 c 128,-1,26
 546 137 546 137 581 137 c 0,27,28
 723 137 723 137 799 249.5 c 128,-1,29
 875 362 875 362 875 539 c 0,30,31
 875 631 875 631 856.5 704 c 128,-1,32
 838 777 838 777 808.5 821.5 c 128,-1,33
 779 866 779 866 740 895 c 128,-1,34
 701 924 701 924 664 935.5 c 128,-1,35
 627 947 627 947 589 947 c 0,18,19
EndSplineSet
EndChar

StartChar: c
Encoding: 99 99 69
Width: 1024
GlyphClass: 2
Flags: W
LayerCount: 2
Fore
SplineSet
561 137 m 0,0,1
 610 137 610 137 654 151 c 128,-1,2
 698 165 698 165 737.5 194 c 128,-1,3
 777 223 777 223 801.5 276.5 c 128,-1,4
 826 330 826 330 828 402 c 1,5,-1
 1005 402 l 1,6,7
 999 204 999 204 881.5 96.5 c 128,-1,8
 764 -11 764 -11 563 -11 c 0,9,10
 487 -11 487 -11 416 11 c 128,-1,11
 345 33 345 33 284 78.5 c 128,-1,12
 223 124 223 124 177.5 187.5 c 128,-1,13
 132 251 132 251 106 339.5 c 128,-1,14
 80 428 80 428 80 531 c 0,15,16
 80 790 80 790 207 942.5 c 128,-1,17
 334 1095 334 1095 564 1095 c 0,18,19
 673 1095 673 1095 756 1064.5 c 128,-1,20
 839 1034 839 1034 884.5 990.5 c 128,-1,21
 930 947 930 947 958 889.5 c 128,-1,22
 986 832 986 832 994.5 788.5 c 128,-1,23
 1003 745 1003 745 1003 705 c 1,24,-1
 828 705 l 1,25,26
 818 800 818 800 746 873.5 c 128,-1,27
 674 947 674 947 571 947 c 0,28,29
 420 947 420 947 340 838.5 c 128,-1,30
 260 730 260 730 260 536 c 0,31,32
 260 448 260 448 280 377 c 128,-1,33
 300 306 300 306 331.5 262.5 c 128,-1,34
 363 219 363 219 404 189.5 c 128,-1,35
 445 160 445 160 484 148.5 c 128,-1,36
 523 137 523 137 561 137 c 0,0,1
EndSplineSet
EndChar

StartChar: d
Encoding: 100 100 70
Width: 1139
GlyphClass: 2
Flags: W
LayerCount: 2
Fore
SplineSet
514 1095 m 0,0,1
 631 1095 631 1095 697 1058.5 c 128,-1,2
 763 1022 763 1022 806 966 c 1,3,-1
 806 1466 l 1,4,-1
 991 1466 l 1,5,-1
 991 0 l 1,6,-1
 818 0 l 1,7,-1
 818 122 l 1,8,9
 727 -11 727 -11 522 -11 c 0,10,11
 384 -11 384 -11 280 60.5 c 128,-1,12
 176 132 176 132 123 255 c 128,-1,13
 70 378 70 378 70 534 c 0,14,15
 70 695 70 695 119.5 820.5 c 128,-1,16
 169 946 169 946 271 1020.5 c 128,-1,17
 373 1095 373 1095 514 1095 c 0,0,1
539 947 m 0,18,19
 457 947 457 947 397.5 910 c 128,-1,20
 338 873 338 873 307.5 810 c 128,-1,21
 277 747 277 747 263.5 681.5 c 128,-1,22
 250 616 250 616 250 542 c 0,23,24
 250 450 250 450 269 377.5 c 128,-1,25
 288 305 288 305 318 261 c 128,-1,26
 348 217 348 217 387.5 188 c 128,-1,27
 427 159 427 159 464 148 c 128,-1,28
 501 137 501 137 539 137 c 0,29,30
 583 137 583 137 630 164.5 c 128,-1,31
 677 192 677 192 717.5 240.5 c 128,-1,32
 758 289 758 289 784.5 364.5 c 128,-1,33
 811 440 811 440 811 527 c 0,34,35
 811 718 811 718 733.5 832.5 c 128,-1,36
 656 947 656 947 539 947 c 0,18,19
EndSplineSet
EndChar

StartChar: e
Encoding: 101 101 71
Width: 1139
GlyphClass: 2
Flags: W
LayerCount: 2
Fore
SplineSet
267 490 m 1,0,1
 269 392 269 392 297.5 320.5 c 128,-1,2
 326 249 326 249 372.5 210.5 c 128,-1,3
 419 172 419 172 471 154.5 c 128,-1,4
 523 137 523 137 582 137 c 0,5,6
 691 137 691 137 762 189 c 128,-1,7
 833 241 833 241 862 333 c 1,8,-1
 1048 333 l 1,9,10
 1018 174 1018 174 894 81.5 c 128,-1,11
 770 -11 770 -11 581 -11 c 0,12,13
 340 -11 340 -11 207.5 130.5 c 128,-1,14
 75 272 75 272 75 527 c 0,15,16
 75 785 75 785 206 940 c 128,-1,17
 337 1095 337 1095 571 1095 c 0,18,19
 804 1095 804 1095 928.5 940.5 c 128,-1,20
 1053 786 1053 786 1053 490 c 1,21,-1
 267 490 l 1,0,1
862 638 m 1,22,23
 859 680 859 680 851 717.5 c 128,-1,24
 843 755 843 755 822.5 799 c 128,-1,25
 802 843 802 843 772 874 c 128,-1,26
 742 905 742 905 690.5 926 c 128,-1,27
 639 947 639 947 573 947 c 0,28,29
 448 947 448 947 363.5 857 c 128,-1,30
 279 767 279 767 271 638 c 1,31,-1
 862 638 l 1,22,23
EndSplineSet
EndChar

StartChar: f
Encoding: 102 102 72
Width: 569
GlyphClass: 2
Flags: W
LayerCount: 2
Fore
SplineSet
493 1367 m 0,0,1
 431 1367 431 1367 394 1316.5 c 128,-1,2
 357 1266 357 1266 357 1160 c 2,3,-1
 357 1062 l 1,4,-1
 536 1062 l 1,5,-1
 536 914 l 1,6,-1
 357 914 l 1,7,-1
 357 0 l 1,8,-1
 177 0 l 1,9,-1
 177 914 l 1,10,-1
 19 914 l 1,11,-1
 19 1062 l 1,12,-1
 177 1062 l 1,13,-1
 177 1175 l 2,14,15
 177 1253 177 1253 197 1314.5 c 128,-1,16
 217 1376 217 1376 248 1412.5 c 128,-1,17
 279 1449 279 1449 321 1473 c 128,-1,18
 363 1497 363 1497 403.5 1506 c 128,-1,19
 444 1515 444 1515 487 1515 c 0,20,21
 564 1515 564 1515 640 1488 c 1,22,-1
 640 1340 l 1,23,24
 559 1367 559 1367 493 1367 c 0,0,1
EndSplineSet
EndChar

StartChar: g
Encoding: 103 103 73
Width: 1139
GlyphClass: 2
Flags: W
LayerCount: 2
Fore
SplineSet
1002 133 m 2,0,1
 1002 -81 1002 -81 951 -204 c 128,-1,2
 900 -327 900 -327 798 -377.5 c 128,-1,3
 696 -428 696 -428 522 -428 c 0,4,5
 331 -428 331 -428 214 -336.5 c 128,-1,6
 97 -245 97 -245 97 -74 c 1,7,-1
 277 -74 l 1,8,9
 277 -176 277 -176 348.5 -228 c 128,-1,10
 420 -280 420 -280 521 -280 c 0,11,12
 608 -280 608 -280 668.5 -251 c 128,-1,13
 729 -222 729 -222 761.5 -165.5 c 128,-1,14
 794 -109 794 -109 808 -38.5 c 128,-1,15
 822 32 822 32 822 128 c 1,16,17
 704 -11 704 -11 525 -11 c 0,18,19
 385 -11 385 -11 280 60.5 c 128,-1,20
 175 132 175 132 120.5 255.5 c 128,-1,21
 66 379 66 379 66 536 c 0,22,23
 66 696 66 696 119.5 821.5 c 128,-1,24
 173 947 173 947 278.5 1021 c 128,-1,25
 384 1095 384 1095 526 1095 c 0,26,27
 630 1095 630 1095 706 1063 c 128,-1,28
 782 1031 782 1031 822 974 c 1,29,-1
 822 1062 l 1,30,-1
 1002 1062 l 1,31,-1
 1002 133 l 2,0,1
536 947 m 0,32,33
 399 947 399 947 322.5 832.5 c 128,-1,34
 246 718 246 718 246 546 c 0,35,36
 246 458 246 458 263 385.5 c 128,-1,37
 280 313 280 313 314 256.5 c 128,-1,38
 348 200 348 200 405.5 168.5 c 128,-1,39
 463 137 463 137 539 137 c 0,40,41
 677 137 677 137 749.5 244.5 c 128,-1,42
 822 352 822 352 822 540 c 0,43,44
 822 632 822 632 803 704.5 c 128,-1,45
 784 777 784 777 754 821.5 c 128,-1,46
 724 866 724 866 685 895 c 128,-1,47
 646 924 646 924 609.5 935.5 c 128,-1,48
 573 947 573 947 536 947 c 0,32,33
EndSplineSet
EndChar

StartChar: h
Encoding: 104 104 74
Width: 1139
GlyphClass: 2
Flags: W
LayerCount: 2
Fore
SplineSet
596 947 m 0,0,1
 455 947 455 947 385 857 c 128,-1,2
 315 767 315 767 315 597 c 2,3,-1
 315 0 l 1,4,-1
 135 0 l 1,5,-1
 135 1466 l 1,6,-1
 315 1466 l 1,7,-1
 315 970 l 1,8,9
 362 1032 362 1032 439 1063.5 c 128,-1,10
 516 1095 516 1095 600 1095 c 0,11,12
 692 1095 692 1095 764 1068 c 128,-1,13
 836 1041 836 1041 879.5 999 c 128,-1,14
 923 957 923 957 951 899.5 c 128,-1,15
 979 842 979 842 989.5 787 c 128,-1,16
 1000 732 1000 732 1000 673 c 2,17,-1
 1000 0 l 1,18,-1
 820 0 l 1,19,-1
 820 689 l 2,20,21
 820 947 820 947 596 947 c 0,0,1
EndSplineSet
EndChar

StartChar: i
Encoding: 105 105 75
Width: 455
GlyphClass: 2
Flags: W
LayerCount: 2
Fore
SplineSet
136 1259 m 1,0,-1
 136 1466 l 1,1,-1
 316 1466 l 1,2,-1
 316 1259 l 1,3,-1
 136 1259 l 1,0,-1
136 0 m 1,4,-1
 136 1062 l 1,5,-1
 316 1062 l 1,6,-1
 316 0 l 1,7,-1
 136 0 l 1,4,-1
EndSplineSet
EndChar

StartChar: j
Encoding: 106 106 76
Width: 455
GlyphClass: 2
Flags: W
LayerCount: 2
Fore
SplineSet
134 1257 m 1,0,-1
 134 1466 l 1,1,-1
 314 1466 l 1,2,-1
 314 1257 l 1,3,-1
 134 1257 l 1,0,-1
314 -58 m 2,4,5
 314 -256 314 -256 242.5 -342 c 128,-1,6
 171 -428 171 -428 39 -428 c 0,7,8
 -23 -428 -23 -428 -94 -412 c 1,9,-1
 -94 -272 l 1,10,11
 -38 -280 -38 -280 -7 -280 c 0,12,13
 67 -280 67 -280 100.5 -229 c 128,-1,14
 134 -178 134 -178 134 -54 c 2,15,-1
 134 1062 l 1,16,-1
 314 1062 l 1,17,-1
 314 -58 l 2,4,5
EndSplineSet
EndChar

StartChar: k
Encoding: 107 107 77
Width: 1139
GlyphClass: 2
Flags: W
LayerCount: 2
Fore
SplineSet
546 1095 m 0,0,1
 582 1095 582 1095 615 1090 c 128,-1,2
 648 1085 648 1085 674.5 1075 c 128,-1,3
 701 1065 701 1065 721.5 1055.5 c 128,-1,4
 742 1046 742 1046 761 1031.5 c 128,-1,5
 780 1017 780 1017 789.5 1009 c 128,-1,6
 799 1001 799 1001 813 987 c 128,-1,7
 827 973 827 973 828 972 c 2,8,-1
 828 1062 l 1,9,-1
 1008 1062 l 1,10,-1
 1008 -390 l 1,11,-1
 828 -390 l 1,12,-1
 828 133 l 1,13,14
 713 -11 713 -11 537 -11 c 0,15,16
 330 -11 330 -11 208.5 141.5 c 128,-1,17
 87 294 87 294 87 533 c 0,18,19
 87 780 87 780 208.5 937.5 c 128,-1,20
 330 1095 330 1095 546 1095 c 0,0,1
556 137 m 0,21,22
 635 137 635 137 698 193.5 c 128,-1,23
 761 250 761 250 794.5 341.5 c 128,-1,24
 828 433 828 433 828 538 c 0,25,26
 828 629 828 629 810.5 701.5 c 128,-1,27
 793 774 793 774 766 818.5 c 128,-1,28
 739 863 739 863 703.5 893 c 128,-1,29
 668 923 668 923 633.5 935 c 128,-1,30
 599 947 599 947 564 947 c 0,31,32
 502 947 502 947 451.5 924.5 c 128,-1,33
 401 902 401 902 367 863.5 c 128,-1,34
 333 825 333 825 310 773 c 128,-1,35
 287 721 287 721 277 664 c 128,-1,36
 267 607 267 607 267 545 c 0,37,38
 267 453 267 453 286 380 c 128,-1,39
 305 307 305 307 334.5 262.5 c 128,-1,40
 364 218 364 218 403.5 189 c 128,-1,41
 443 160 443 160 480.5 148.5 c 128,-1,42
 518 137 518 137 556 137 c 0,21,22
EndSplineSet
EndChar

StartChar: l
Encoding: 108 108 78
Width: 455
GlyphClass: 2
Flags: W
LayerCount: 2
Fore
SplineSet
131 0 m 1,0,-1
 131 1466 l 1,1,-1
 311 1466 l 1,2,-1
 311 0 l 1,3,-1
 131 0 l 1,0,-1
EndSplineSet
EndChar

StartChar: m
Encoding: 109 109 79
Width: 1706
GlyphClass: 2
Flags: W
LayerCount: 2
Fore
SplineSet
764 707 m 2,0,1
 764 838 764 838 716.5 892.5 c 128,-1,2
 669 947 669 947 578 947 c 0,3,4
 505 947 505 947 452.5 920 c 128,-1,5
 400 893 400 893 370.5 840.5 c 128,-1,6
 341 788 341 788 328 721.5 c 128,-1,7
 315 655 315 655 315 568 c 2,8,-1
 315 0 l 1,9,-1
 135 0 l 1,10,-1
 135 1062 l 1,11,-1
 315 1062 l 1,12,-1
 315 939 l 2,13,14
 316 940 316 940 334 961 c 128,-1,15
 352 982 352 982 364.5 994.5 c 128,-1,16
 377 1007 377 1007 405 1028.5 c 128,-1,17
 433 1050 433 1050 460.5 1062.5 c 128,-1,18
 488 1075 488 1075 530 1085 c 128,-1,19
 572 1095 572 1095 618 1095 c 0,20,21
 850 1095 850 1095 916 909 c 1,22,23
 1042 1095 1042 1095 1245 1095 c 0,24,25
 1400 1095 1400 1095 1486.5 1008 c 128,-1,26
 1573 921 1573 921 1573 736 c 2,27,-1
 1573 0 l 1,28,-1
 1393 0 l 1,29,-1
 1393 686 l 2,30,31
 1393 826 1393 826 1349.5 886.5 c 128,-1,32
 1306 947 1306 947 1205 947 c 0,33,34
 1173 947 1173 947 1143 941.5 c 128,-1,35
 1113 936 1113 936 1075 916 c 128,-1,36
 1037 896 1037 896 1009.5 864 c 128,-1,37
 982 832 982 832 963 772.5 c 128,-1,38
 944 713 944 713 944 634 c 2,39,-1
 944 0 l 1,40,-1
 764 0 l 1,41,-1
 764 707 l 2,0,1
EndSplineSet
EndChar

StartChar: n
Encoding: 110 110 80
Width: 1139
GlyphClass: 2
Flags: W
LayerCount: 2
Fore
SplineSet
596 947 m 0,0,1
 455 947 455 947 385 857 c 128,-1,2
 315 767 315 767 315 597 c 2,3,-1
 315 0 l 1,4,-1
 135 0 l 1,5,-1
 135 1064 l 1,6,-1
 315 1064 l 1,7,-1
 315 970 l 1,8,9
 362 1032 362 1032 439 1063.5 c 128,-1,10
 516 1095 516 1095 600 1095 c 0,11,12
 692 1095 692 1095 764 1068 c 128,-1,13
 836 1041 836 1041 879.5 999 c 128,-1,14
 923 957 923 957 951 899.5 c 128,-1,15
 979 842 979 842 989.5 787 c 128,-1,16
 1000 732 1000 732 1000 673 c 2,17,-1
 1000 0 l 1,18,-1
 820 0 l 1,19,-1
 820 689 l 2,20,21
 820 947 820 947 596 947 c 0,0,1
EndSplineSet
EndChar

StartChar: o
Encoding: 111 111 81
Width: 1139
GlyphClass: 2
Flags: W
LayerCount: 2
Fore
SplineSet
566 -11 m 0,0,1
 328 -11 328 -11 198 133.5 c 128,-1,2
 68 278 68 278 68 536 c 0,3,4
 68 793 68 793 198.5 944 c 128,-1,5
 329 1095 329 1095 566 1095 c 0,6,7
 796 1095 796 1095 929.5 947 c 128,-1,8
 1063 799 1063 799 1063 551 c 0,9,10
 1063 426 1063 426 1035.5 328 c 128,-1,11
 1008 230 1008 230 961.5 167 c 128,-1,12
 915 104 915 104 850 63 c 128,-1,13
 785 22 785 22 715.5 5.5 c 128,-1,14
 646 -11 646 -11 566 -11 c 0,0,1
566 947 m 0,15,16
 414 947 414 947 331 834.5 c 128,-1,17
 248 722 248 722 248 536 c 0,18,19
 248 441 248 441 269.5 368 c 128,-1,20
 291 295 291 295 323.5 252.5 c 128,-1,21
 356 210 356 210 400.5 183 c 128,-1,22
 445 156 445 156 484.5 146.5 c 128,-1,23
 524 137 524 137 566 137 c 0,24,25
 720 137 720 137 801.5 246 c 128,-1,26
 883 355 883 355 883 542 c 0,27,28
 883 619 883 619 868.5 683 c 128,-1,29
 854 747 854 747 828.5 790 c 128,-1,30
 803 833 803 833 771.5 864.5 c 128,-1,31
 740 896 740 896 703.5 913.5 c 128,-1,32
 667 931 667 931 633 939 c 128,-1,33
 599 947 599 947 566 947 c 0,15,16
EndSplineSet
EndChar

StartChar: p
Encoding: 112 112 82
Width: 1139
GlyphClass: 2
Flags: W
LayerCount: 2
Fore
SplineSet
1043 533 m 0,0,1
 1043 294 1043 294 921.5 141.5 c 128,-1,2
 800 -11 800 -11 593 -11 c 0,3,4
 417 -11 417 -11 302 133 c 1,5,-1
 302 -390 l 1,6,-1
 122 -390 l 1,7,-1
 122 1062 l 1,8,-1
 302 1062 l 1,9,-1
 302 972 l 2,10,11
 303 973 303 973 317 987 c 128,-1,12
 331 1001 331 1001 340.5 1009 c 128,-1,13
 350 1017 350 1017 369 1031.5 c 128,-1,14
 388 1046 388 1046 408.5 1055.5 c 128,-1,15
 429 1065 429 1065 455.5 1075 c 128,-1,16
 482 1085 482 1085 515 1090 c 128,-1,17
 548 1095 548 1095 584 1095 c 0,18,19
 729 1095 729 1095 834 1021.5 c 128,-1,20
 939 948 939 948 991 822 c 128,-1,21
 1043 696 1043 696 1043 533 c 0,0,1
566 947 m 0,22,23
 531 947 531 947 496.5 935 c 128,-1,24
 462 923 462 923 426.5 893 c 128,-1,25
 391 863 391 863 364 818.5 c 128,-1,26
 337 774 337 774 319.5 701.5 c 128,-1,27
 302 629 302 629 302 538 c 0,28,29
 302 433 302 433 334.5 342.5 c 128,-1,30
 367 252 367 252 430.5 194.5 c 128,-1,31
 494 137 494 137 574 137 c 0,32,33
 612 137 612 137 649.5 148.5 c 128,-1,34
 687 160 687 160 726.5 189 c 128,-1,35
 766 218 766 218 795.5 262.5 c 128,-1,36
 825 307 825 307 844 380 c 128,-1,37
 863 453 863 453 863 545 c 0,38,39
 863 606 863 606 853 662.5 c 128,-1,40
 843 719 843 719 820 771 c 128,-1,41
 797 823 797 823 763.5 862 c 128,-1,42
 730 901 730 901 679 924 c 128,-1,43
 628 947 628 947 566 947 c 0,22,23
EndSplineSet
EndChar

StartChar: q
Encoding: 113 113 83
Width: 1139
GlyphClass: 2
Flags: W
LayerCount: 2
Fore
SplineSet
546 1095 m 0,0,1
 582 1095 582 1095 615 1090 c 128,-1,2
 648 1085 648 1085 674.5 1075 c 128,-1,3
 701 1065 701 1065 721.5 1055.5 c 128,-1,4
 742 1046 742 1046 761 1031.5 c 128,-1,5
 780 1017 780 1017 789.5 1009 c 128,-1,6
 799 1001 799 1001 813 987 c 128,-1,7
 827 973 827 973 828 972 c 2,8,-1
 828 1062 l 1,9,-1
 1008 1062 l 1,10,-1
 1008 -390 l 1,11,-1
 828 -390 l 1,12,-1
 828 133 l 1,13,14
 713 -11 713 -11 537 -11 c 0,15,16
 330 -11 330 -11 208.5 141.5 c 128,-1,17
 87 294 87 294 87 533 c 0,18,19
 87 780 87 780 208.5 937.5 c 128,-1,20
 330 1095 330 1095 546 1095 c 0,0,1
556 137 m 0,21,22
 635 137 635 137 698 193.5 c 128,-1,23
 761 250 761 250 794.5 341.5 c 128,-1,24
 828 433 828 433 828 538 c 0,25,26
 828 629 828 629 810.5 701.5 c 128,-1,27
 793 774 793 774 766 818.5 c 128,-1,28
 739 863 739 863 703.5 893 c 128,-1,29
 668 923 668 923 633.5 935 c 128,-1,30
 599 947 599 947 564 947 c 0,31,32
 502 947 502 947 451.5 924.5 c 128,-1,33
 401 902 401 902 367 863.5 c 128,-1,34
 333 825 333 825 310 773 c 128,-1,35
 287 721 287 721 277 664 c 128,-1,36
 267 607 267 607 267 545 c 0,37,38
 267 453 267 453 286 380 c 128,-1,39
 305 307 305 307 334.5 262.5 c 128,-1,40
 364 218 364 218 403.5 189 c 128,-1,41
 443 160 443 160 480.5 148.5 c 128,-1,42
 518 137 518 137 556 137 c 0,21,22
EndSplineSet
EndChar

StartChar: r
Encoding: 114 114 84
Width: 682
GlyphClass: 2
Flags: W
LayerCount: 2
Fore
SplineSet
518 947 m 0,0,1
 423 947 423 947 368 851 c 128,-1,2
 313 755 313 755 313 575 c 2,3,-1
 313 0 l 1,4,-1
 133 0 l 1,5,-1
 133 1062 l 1,6,-1
 313 1062 l 1,7,-1
 313 972 l 1,8,9
 333 995 333 995 346 1008 c 128,-1,10
 359 1021 359 1021 389 1045.5 c 128,-1,11
 419 1070 419 1070 455.5 1082.5 c 128,-1,12
 492 1095 492 1095 533 1095 c 0,13,14
 631 1095 631 1095 710 1046 c 1,15,-1
 648 908 l 1,16,17
 582 947 582 947 518 947 c 0,0,1
EndSplineSet
EndChar

StartChar: s
Encoding: 115 115 85
Width: 1024
GlyphClass: 2
Flags: W
LayerCount: 2
Fore
SplineSet
945 325 m 0,0,1
 945 175 945 175 824.5 82 c 128,-1,2
 704 -11 704 -11 517 -11 c 0,3,4
 313 -11 313 -11 194 84.5 c 128,-1,5
 75 180 75 180 63 358 c 1,6,-1
 241 358 l 1,7,8
 255 252 255 252 325 194.5 c 128,-1,9
 395 137 395 137 516 137 c 0,10,11
 618 137 618 137 691.5 186.5 c 128,-1,12
 765 236 765 236 765 306 c 0,13,14
 765 337 765 337 751 362 c 128,-1,15
 737 387 737 387 717 403 c 128,-1,16
 697 419 697 419 661.5 432.5 c 128,-1,17
 626 446 626 446 595 453.5 c 128,-1,18
 564 461 564 461 517 470 c 0,19,20
 338 504 338 504 269 532 c 0,21,22
 135 586 135 586 104 699 c 0,23,24
 93 737 93 737 93 785 c 0,25,26
 93 885 93 885 147 956.5 c 128,-1,27
 201 1028 201 1028 288 1061.5 c 128,-1,28
 375 1095 375 1095 484 1095 c 0,29,30
 584 1095 584 1095 662 1070.5 c 128,-1,31
 740 1046 740 1046 784.5 1010 c 128,-1,32
 829 974 829 974 857.5 927.5 c 128,-1,33
 886 881 886 881 895.5 842.5 c 128,-1,34
 905 804 905 804 905 769 c 1,35,-1
 729 769 l 1,36,37
 705 947 705 947 499 947 c 0,38,39
 402 947 402 947 337.5 903 c 128,-1,40
 273 859 273 859 273 783 c 0,41,42
 273 756 273 756 284.5 735.5 c 128,-1,43
 296 715 296 715 314 701.5 c 128,-1,44
 332 688 332 688 366 676 c 128,-1,45
 400 664 400 664 432 656.5 c 128,-1,46
 464 649 464 649 517 639 c 0,47,48
 688 607 688 607 750 585 c 0,49,50
 896 532 896 532 932 418 c 0,51,52
 945 376 945 376 945 325 c 0,0,1
EndSplineSet
EndChar

StartChar: t
Encoding: 116 116 86
Width: 569
GlyphClass: 2
Flags: W
LayerCount: 2
Fore
SplineSet
347 295 m 2,0,1
 347 262 347 262 348.5 242 c 128,-1,2
 350 222 350 222 355.5 199.5 c 128,-1,3
 361 177 361 177 371.5 165 c 128,-1,4
 382 153 382 153 401.5 145 c 128,-1,5
 421 137 421 137 449 137 c 0,6,7
 470 137 470 137 528 145 c 1,8,-1
 554 4 l 1,9,10
 482 -11 482 -11 411 -11 c 0,11,12
 334 -11 334 -11 285 9 c 128,-1,13
 236 29 236 29 210.5 73 c 128,-1,14
 185 117 185 117 176 172 c 128,-1,15
 167 227 167 227 167 313 c 2,16,-1
 167 914 l 1,17,-1
 18 914 l 1,18,-1
 18 1062 l 1,19,-1
 167 1062 l 1,20,-1
 167 1433 l 1,21,-1
 347 1433 l 1,22,-1
 347 1062 l 1,23,-1
 497 1062 l 1,24,-1
 497 914 l 1,25,-1
 347 914 l 1,26,-1
 347 295 l 2,0,1
EndSplineSet
EndChar

StartChar: u
Encoding: 117 117 87
Width: 1139
GlyphClass: 2
Flags: W
LayerCount: 2
Fore
SplineSet
284 397 m 2,0,1
 284 323 284 323 306.5 269.5 c 128,-1,2
 329 216 329 216 367.5 188.5 c 128,-1,3
 406 161 406 161 447 149 c 128,-1,4
 488 137 488 137 534 137 c 0,5,6
 789 137 789 137 789 392 c 2,7,-1
 789 1062 l 1,8,-1
 969 1062 l 1,9,-1
 969 0 l 1,10,-1
 789 0 l 1,11,-1
 789 63 l 1,12,13
 723 -11 723 -11 541 -11 c 0,14,15
 332 -11 332 -11 218 104.5 c 128,-1,16
 104 220 104 220 104 411 c 2,17,-1
 104 1062 l 1,18,-1
 284 1062 l 1,19,-1
 284 397 l 2,0,1
EndSplineSet
EndChar

StartChar: v
Encoding: 118 118 88
Width: 1024
GlyphClass: 2
Flags: W
LayerCount: 2
Fore
SplineSet
429 0 m 1,0,-1
 26 1062 l 1,1,-1
 216 1062 l 1,2,-1
 520 269 l 1,3,-1
 810 1062 l 1,4,-1
 1000 1062 l 1,5,-1
 599 0 l 1,6,-1
 429 0 l 1,0,-1
EndSplineSet
EndChar

StartChar: w
Encoding: 119 119 89
Width: 1479
GlyphClass: 2
Flags: W
LayerCount: 2
Fore
SplineSet
1380 733 m 0,0,1
 1380 0 1380 0 697 0 c 2,2,-1
 168 0 l 1,3,-1
 168 1450 l 1,4,-1
 673 1450 l 2,5,6
 839 1450 839 1450 963.5 1414 c 128,-1,7
 1088 1378 1088 1378 1166.5 1316 c 128,-1,8
 1245 1254 1245 1254 1293.5 1161 c 128,-1,9
 1342 1068 1342 1068 1361 965.5 c 128,-1,10
 1380 863 1380 863 1380 733 c 0,0,1
1200 736 m 0,11,12
 1200 862 1200 862 1170 958.5 c 128,-1,13
 1140 1055 1140 1055 1090.5 1115 c 128,-1,14
 1041 1175 1041 1175 971 1213 c 128,-1,15
 901 1251 901 1251 828 1265.5 c 128,-1,16
 755 1280 755 1280 670 1280 c 2,17,-1
 348 1280 l 1,18,-1
 348 170 l 1,19,-1
 675 170 l 2,20,21
 793 170 793 170 886.5 201.5 c 128,-1,22
 980 233 980 233 1051.5 298.5 c 128,-1,23
 1123 364 1123 364 1161.5 475 c 128,-1,24
 1200 586 1200 586 1200 736 c 0,11,12
EndSplineSet
EndChar

StartChar: x
Encoding: 120 120 90
Width: 1251
GlyphClass: 2
Flags: W
LayerCount: 2
Fore
SplineSet
538 0 m 1,0,-1
 538 1280 l 1,1,-1
 48 1280 l 1,2,-1
 48 1450 l 1,3,-1
 1210 1450 l 1,4,-1
 1210 1280 l 1,5,-1
 718 1280 l 1,6,-1
 718 0 l 1,7,-1
 538 0 l 1,0,-1
EndSplineSet
EndChar

StartChar: y
Encoding: 121 121 91
Width: 1024
GlyphClass: 2
Flags: W
LayerCount: 2
Fore
SplineSet
127 -415 m 1,0,-1
 107 -266 l 1,1,2
 160 -280 160 -280 214 -280 c 0,3,4
 271 -280 271 -280 312.5 -260.5 c 128,-1,5
 354 -241 354 -241 376.5 -214.5 c 128,-1,6
 399 -188 399 -188 412.5 -146 c 128,-1,7
 426 -104 426 -104 430 -73.5 c 128,-1,8
 434 -43 434 -43 436 -2 c 1,9,-1
 33 1062 l 1,10,-1
 227 1062 l 1,11,-1
 525 201 l 1,12,-1
 826 1062 l 1,13,-1
 1006 1062 l 1,14,-1
 602 -1 l 1,15,16
 596 -54 596 -54 588.5 -96 c 128,-1,17
 581 -138 581 -138 565 -191 c 128,-1,18
 549 -244 549 -244 523 -283 c 128,-1,19
 497 -322 497 -322 459.5 -356.5 c 128,-1,20
 422 -391 422 -391 366 -409.5 c 128,-1,21
 310 -428 310 -428 239 -428 c 0,22,23
 160 -428 160 -428 127 -415 c 1,0,-1
EndSplineSet
EndChar

StartChar: z
Encoding: 122 122 92
Width: 455
GlyphClass: 2
Flags: W
LayerCount: 2
Fore
SplineSet
134 1257 m 1,0,-1
 134 1466 l 1,1,-1
 314 1466 l 1,2,-1
 314 1257 l 1,3,-1
 134 1257 l 1,0,-1
314 -58 m 2,4,5
 314 -256 314 -256 242.5 -342 c 128,-1,6
 171 -428 171 -428 39 -428 c 0,7,8
 -23 -428 -23 -428 -94 -412 c 1,9,-1
 -94 -272 l 1,10,11
 -38 -280 -38 -280 -7 -280 c 0,12,13
 67 -280 67 -280 100.5 -229 c 128,-1,14
 134 -178 134 -178 134 -54 c 2,15,-1
 134 1062 l 1,16,-1
 314 1062 l 1,17,-1
 314 -58 l 2,4,5
EndSplineSet
EndChar

StartChar: braceleft
Encoding: 123 123 93
Width: 684
GlyphClass: 2
Flags: W
LayerCount: 2
Fore
SplineSet
57 604 m 1,0,1
 105 609 105 609 139.5 623 c 128,-1,2
 174 637 174 637 197 663.5 c 128,-1,3
 220 690 220 690 233.5 718 c 128,-1,4
 247 746 247 746 253.5 794.5 c 128,-1,5
 260 843 260 843 262 886 c 128,-1,6
 264 929 264 929 264 998 c 0,7,8
 264 1062 264 1062 265 1104 c 128,-1,9
 266 1146 266 1146 269.5 1195.5 c 128,-1,10
 273 1245 273 1245 279.5 1276 c 128,-1,11
 286 1307 286 1307 297 1341.5 c 128,-1,12
 308 1376 308 1376 324.5 1396.5 c 128,-1,13
 341 1417 341 1417 364.5 1437.5 c 128,-1,14
 388 1458 388 1458 419 1468 c 128,-1,15
 450 1478 450 1478 490 1484.5 c 128,-1,16
 530 1491 530 1491 580 1491 c 2,17,-1
 636 1491 l 1,18,-1
 636 1343 l 1,19,-1
 605 1343 l 2,20,21
 563 1343 563 1343 542 1341 c 128,-1,22
 521 1339 521 1339 499 1326 c 128,-1,23
 477 1313 477 1313 468.5 1292.5 c 128,-1,24
 460 1272 460 1272 452 1227.5 c 128,-1,25
 444 1183 444 1183 442.5 1126 c 128,-1,26
 441 1069 441 1069 441 975 c 0,27,28
 441 829 441 829 421.5 748.5 c 128,-1,29
 402 668 402 668 361.5 623 c 128,-1,30
 321 578 321 578 235 530 c 1,31,32
 358 474 358 474 401 378 c 128,-1,33
 444 282 444 282 444 80 c 0,34,35
 444 14 444 14 445 -30 c 128,-1,36
 446 -74 446 -74 449 -114.5 c 128,-1,37
 452 -155 452 -155 456.5 -179 c 128,-1,38
 461 -203 461 -203 470.5 -224 c 128,-1,39
 480 -245 480 -245 490.5 -255 c 128,-1,40
 501 -265 501 -265 519 -272 c 128,-1,41
 537 -279 537 -279 556.5 -281 c 128,-1,42
 576 -283 576 -283 605 -283 c 2,43,-1
 636 -283 l 1,44,-1
 636 -431 l 1,45,-1
 580 -431 l 2,46,47
 530 -431 530 -431 490 -424.5 c 128,-1,48
 450 -418 450 -418 419 -407 c 128,-1,49
 388 -396 388 -396 364.5 -375.5 c 128,-1,50
 341 -355 341 -355 324.5 -334 c 128,-1,51
 308 -313 308 -313 297 -279 c 128,-1,52
 286 -245 286 -245 279.5 -214.5 c 128,-1,53
 273 -184 273 -184 269.5 -136.5 c 128,-1,54
 266 -89 266 -89 265 -49.5 c 128,-1,55
 264 -10 264 -10 264 49 c 0,56,57
 264 101 264 101 263.5 132.5 c 128,-1,58
 263 164 263 164 261 204 c 128,-1,59
 259 244 259 244 255 267.5 c 128,-1,60
 251 291 251 291 243.5 319 c 128,-1,61
 236 347 236 347 225.5 363.5 c 128,-1,62
 215 380 215 380 199.5 397.5 c 128,-1,63
 184 415 184 415 163.5 425 c 128,-1,64
 143 435 143 435 116.5 443.5 c 128,-1,65
 90 452 90 452 57 456 c 1,66,-1
 57 604 l 1,0,1
EndSplineSet
EndChar

StartChar: bar
Encoding: 124 124 94
Width: 532
GlyphClass: 2
Flags: W
LayerCount: 2
Fore
SplineSet
176 -431 m 1,0,-1
 176 1491 l 1,1,-1
 356 1491 l 1,2,-1
 356 -431 l 1,3,-1
 176 -431 l 1,0,-1
EndSplineSet
EndChar

StartChar: braceright
Encoding: 125 125 95
Width: 684
GlyphClass: 2
Flags: W
LayerCount: 2
Fore
SplineSet
627 604 m 1,0,-1
 627 456 l 1,1,2
 594 452 594 452 567.5 443.5 c 128,-1,3
 541 435 541 435 520.5 425 c 128,-1,4
 500 415 500 415 484.5 397.5 c 128,-1,5
 469 380 469 380 458.5 363.5 c 128,-1,6
 448 347 448 347 440.5 319 c 128,-1,7
 433 291 433 291 429 267.5 c 128,-1,8
 425 244 425 244 423 204 c 128,-1,9
 421 164 421 164 420.5 132.5 c 128,-1,10
 420 101 420 101 420 49 c 0,11,12
 420 -10 420 -10 419 -49.5 c 128,-1,13
 418 -89 418 -89 414.5 -136.5 c 128,-1,14
 411 -184 411 -184 404.5 -214.5 c 128,-1,15
 398 -245 398 -245 387 -279 c 128,-1,16
 376 -313 376 -313 359.5 -334 c 128,-1,17
 343 -355 343 -355 319.5 -375.5 c 128,-1,18
 296 -396 296 -396 265 -407 c 128,-1,19
 234 -418 234 -418 194 -424.5 c 128,-1,20
 154 -431 154 -431 104 -431 c 2,21,-1
 48 -431 l 1,22,-1
 48 -283 l 1,23,-1
 79 -283 l 2,24,25
 108 -283 108 -283 127.5 -281 c 128,-1,26
 147 -279 147 -279 165 -272 c 128,-1,27
 183 -265 183 -265 193.5 -255 c 128,-1,28
 204 -245 204 -245 213.5 -224 c 128,-1,29
 223 -203 223 -203 227.5 -179 c 128,-1,30
 232 -155 232 -155 235 -114.5 c 128,-1,31
 238 -74 238 -74 239 -30 c 128,-1,32
 240 14 240 14 240 80 c 0,33,34
 240 282 240 282 283 378 c 128,-1,35
 326 474 326 474 449 530 c 1,36,37
 363 578 363 578 322.5 623 c 128,-1,38
 282 668 282 668 262.5 748.5 c 128,-1,39
 243 829 243 829 243 975 c 0,40,41
 243 1069 243 1069 241.5 1126 c 128,-1,42
 240 1183 240 1183 232 1227.5 c 128,-1,43
 224 1272 224 1272 215.5 1292.5 c 128,-1,44
 207 1313 207 1313 185 1326 c 128,-1,45
 163 1339 163 1339 142 1341 c 128,-1,46
 121 1343 121 1343 79 1343 c 2,47,-1
 48 1343 l 1,48,-1
 48 1491 l 1,49,-1
 104 1491 l 2,50,51
 154 1491 154 1491 194 1484.5 c 128,-1,52
 234 1478 234 1478 265 1468 c 128,-1,53
 296 1458 296 1458 319.5 1437.5 c 128,-1,54
 343 1417 343 1417 359.5 1396.5 c 128,-1,55
 376 1376 376 1376 387 1341.5 c 128,-1,56
 398 1307 398 1307 404.5 1276 c 128,-1,57
 411 1245 411 1245 414.5 1195.5 c 128,-1,58
 418 1146 418 1146 419 1104 c 128,-1,59
 420 1062 420 1062 420 998 c 0,60,61
 420 929 420 929 422 886 c 128,-1,62
 424 843 424 843 430.5 794.5 c 128,-1,63
 437 746 437 746 450.5 718 c 128,-1,64
 464 690 464 690 487 663.5 c 128,-1,65
 510 637 510 637 544.5 623 c 128,-1,66
 579 609 579 609 627 604 c 1,0,-1
EndSplineSet
EndChar

StartChar: asciitilde
Encoding: 126 126 96
Width: 1196
GlyphClass: 2
Flags: W
LayerCount: 2
Fore
SplineSet
348 702 m 0,0,1
 276 702 276 702 218.5 670 c 128,-1,2
 161 638 161 638 87 566 c 1,3,-1
 87 752 l 1,4,5
 194 872 194 872 365 872 c 0,6,7
 430 872 430 872 503.5 851 c 128,-1,8
 577 830 577 830 630.5 805 c 128,-1,9
 684 780 684 780 745.5 759 c 128,-1,10
 807 738 807 738 852 738 c 0,11,12
 922 738 922 738 990.5 779.5 c 128,-1,13
 1059 821 1059 821 1110 875 c 1,14,-1
 1110 682 l 1,15,16
 1046 622 1046 622 980.5 595 c 128,-1,17
 915 568 915 568 833 568 c 0,18,19
 767 568 767 568 697 589 c 128,-1,20
 627 610 627 610 577 635 c 128,-1,21
 527 660 527 660 464.5 681 c 128,-1,22
 402 702 402 702 348 702 c 0,0,1
EndSplineSet
EndChar
